<svg xmlns="http://www.w3.org/2000/svg" width="147.55" height="119" viewBox="0 0 147.55 119">
  <g id="Group_4757" data-name="Group 4757" transform="translate(-56.693 -73.148)">
    <g id="Group_4754" data-name="Group 4754" transform="translate(56.808 73.148)">
      <path id="Path_27365" data-name="Path 27365" d="M218.406,101.432a56.661,56.661,0,0,0-3.791-6.749c-2.446-4.243-5.2-9.146-7.659-13.421-2.027-3.52-3.915-8.044-8.947-8.113-5.232-.073-6.972,4.548-8.871,7.886-6.029,10.6-18.35,31.922-18.35,31.922h5.687s11.756-20.8,17.592-31.316c.746-1.345,2.225-3.109,3.943-3.109,2.605,0,3.909,3.1,5.08,5.232,3.135,5.708,6.157,11.169,9.1,16.682.925,1.733,2.8,4.015,1.516,6.369-.839,1.536-2.529,1.442-4.928,1.442,0,.039-23.2,0-23.2,0v4.7h21.079a49.556,49.556,0,0,0,6.975-.227c3.33-.625,5.138-3.207,5.611-6.521v-.834A13.335,13.335,0,0,0,218.406,101.432Z" transform="translate(-71.922 -73.148)"/>
      <path id="Path_27366" data-name="Path 27366" d="M57.558,75.542H82.5l-25.339,35.39a1.727,1.727,0,0,0-.338,1.014v1.041H86.107v-2.394H60.655L85.938,75.287a1.988,1.988,0,0,0,.394-1.154v-.986H57.558Z" transform="translate(-56.826 -73.148)"/>
      <rect id="Rectangle_967" data-name="Rectangle 967" width="2.9" height="39.838" transform="translate(39.247)"/>
      <path id="Path_27367" data-name="Path 27367" d="M156.894,73.232a1.022,1.022,0,0,0-.451.45L140.79,101.359a7.378,7.378,0,0,0-.409.83q-.183.437-.352.887a11.425,11.425,0,0,0-.732-1.688l-16.075-27.7a1,1,0,0,0-.465-.45,1.947,1.947,0,0,0-.633-.084h-1.971v39.838h2.505V79.032a15.294,15.294,0,0,0-.084-1.576l16.1,27.873a1.266,1.266,0,0,0,1.125.732h.451a1.228,1.228,0,0,0,1.126-.732l15.683-27.845a15.059,15.059,0,0,0-.085,1.548v33.955h2.534V73.148h-2A1.818,1.818,0,0,0,156.894,73.232Z" transform="translate(-65.214 -73.148)"/>
    </g>
    <g id="Group_4755" data-name="Group 4755" transform="translate(56.693 154.634)">
      <path id="Path_27368" data-name="Path 27368" d="M102.317,198.207v-.785a12.568,12.568,0,0,0-.786-3.713,53.273,53.273,0,0,0-3.57-6.355c-2.3-4-4.894-8.611-7.211-12.637-1.908-3.315-3.687-7.574-8.425-7.64-4.927-.069-6.566,4.282-8.354,7.425-5.677,9.978-17.279,30.059-17.279,30.059h5.354s11.07-19.588,16.565-29.488c.7-1.267,2.1-2.928,3.713-2.928,2.453,0,3.681,2.92,4.784,4.927,2.952,5.374,5.8,10.517,8.568,15.708.871,1.633,2.638,3.782,1.428,6-.79,1.446-2.381,1.358-4.641,1.358,0,.036-21.847,0-21.847,0v4.426H90.465a46.771,46.771,0,0,0,6.569-.214C100.168,203.758,101.872,201.326,102.317,198.207Z" transform="translate(-56.693 -167.076)"/>
      <path id="Path_27369" data-name="Path 27369" d="M100.021,173.458v.785a12.549,12.549,0,0,0,.785,3.713,53.2,53.2,0,0,0,3.57,6.354c2.3,4,4.894,8.612,7.211,12.638,1.909,3.315,3.687,7.574,8.426,7.64,4.926.069,6.565-4.283,8.354-7.425,5.677-9.978,17.278-30.059,17.278-30.059H140.29s-11.069,19.588-16.565,29.488c-.7,1.266-2.1,2.927-3.712,2.927-2.454,0-3.682-2.92-4.784-4.926-2.952-5.374-5.8-10.517-8.568-15.708-.871-1.633-2.638-3.782-1.428-6,.79-1.445,2.381-1.357,4.641-1.357,0-.036,21.848,0,21.848,0V167.1H111.872a46.761,46.761,0,0,0-6.568.214C102.169,167.907,100.466,170.338,100.021,173.458Z" transform="translate(-62.432 -167.076)"/>
      <path id="Path_27370" data-name="Path 27370" d="M176.478,198.207v-.785a12.57,12.57,0,0,0-.785-3.713,53.274,53.274,0,0,0-3.57-6.355c-2.3-4-4.895-8.611-7.212-12.637-1.908-3.315-3.687-7.574-8.425-7.64-4.927-.069-6.566,4.282-8.354,7.425-5.677,9.978-17.279,30.059-17.279,30.059h5.355s11.069-19.588,16.565-29.488c.7-1.267,2.1-2.928,3.712-2.928,2.453,0,3.681,2.92,4.784,4.927,2.953,5.374,5.8,10.517,8.568,15.708.871,1.633,2.639,3.782,1.428,6-.789,1.446-2.381,1.358-4.64,1.358,0,.036-21.848,0-21.848,0v4.426h19.848a46.768,46.768,0,0,0,6.569-.214C174.329,203.758,176.033,201.326,176.478,198.207Z" transform="translate(-66.516 -167.076)"/>
      <path id="Path_27371" data-name="Path 27371" d="M174.182,173.458v.785a12.575,12.575,0,0,0,.785,3.713,53.2,53.2,0,0,0,3.57,6.354c2.3,4,4.894,8.612,7.211,12.638,1.909,3.315,3.687,7.574,8.425,7.64,4.927.069,6.566-4.283,8.354-7.425,5.677-9.978,17.279-30.059,17.279-30.059h-5.355s-11.069,19.588-16.565,29.488c-.7,1.266-2.1,2.927-3.712,2.927-2.454,0-3.682-2.92-4.784-4.926-2.953-5.374-5.8-10.517-8.568-15.708-.871-1.633-2.639-3.782-1.428-6,.789-1.445,2.38-1.357,4.64-1.357,0-.036,21.848,0,21.848,0V167.1H186.034a46.771,46.771,0,0,0-6.569.214C176.331,167.907,174.627,170.338,174.182,173.458Z" transform="translate(-72.256 -167.076)"/>
    </g>
    <g id="Group_4756" data-name="Group 4756" transform="translate(56.808 126.169)">
      <path id="Path_27372" data-name="Path 27372" d="M57.914,149.4H56.826V134.459h1.088Z" transform="translate(-56.826 -134.291)"/>
      <path id="Path_27373" data-name="Path 27373" d="M68.068,134.5a.5.5,0,0,1,.18.164l9.673,12.947q-.031-.316-.031-.613V134.459h.95V149.4h-.517a.458.458,0,0,1-.391-.212l-9.716-12.968a5.893,5.893,0,0,1,.032.6V149.4h-.94V134.459h.528A.6.6,0,0,1,68.068,134.5Z" transform="translate(-58.214 -134.291)"/>
      <path id="Path_27374" data-name="Path 27374" d="M98.84,134.459v.92H93.591V149.4H92.514V135.379h-5.28v-.92Z" transform="translate(-60.854 -134.291)"/>
      <path id="Path_27375" data-name="Path 27375" d="M116.2,134.459v.9h-7.868V141.4h6.548v.876h-6.548v6.231H116.2v.9h-8.956V134.459Z" transform="translate(-63.505 -134.291)"/>
      <path id="Path_27376" data-name="Path 27376" d="M126.729,142.644V149.4h-1.077V134.459h3.812a6.224,6.224,0,0,1,3.865,1,3.488,3.488,0,0,1,1.278,2.931,4,4,0,0,1-.3,1.562,3.638,3.638,0,0,1-.849,1.241,4.532,4.532,0,0,1-1.336.877,6,6,0,0,1-1.764.449,1.706,1.706,0,0,1,.454.422l5.143,6.463h-.939a.615.615,0,0,1-.291-.064.757.757,0,0,1-.239-.21l-4.783-6.062a1.078,1.078,0,0,0-.386-.328,1.628,1.628,0,0,0-.639-.095Zm0-.8h2.6a6.135,6.135,0,0,0,1.779-.238,3.832,3.832,0,0,0,1.331-.681,2.945,2.945,0,0,0,.829-1.066,3.345,3.345,0,0,0,.285-1.405,2.746,2.746,0,0,0-1.046-2.365,5.072,5.072,0,0,0-3.042-.771h-2.735Z" transform="translate(-65.943 -134.291)"/>
      <path id="Path_27377" data-name="Path 27377" d="M145.06,134.5a.5.5,0,0,1,.18.164l9.674,12.947a5.978,5.978,0,0,1-.032-.613V134.459h.951V149.4h-.517a.457.457,0,0,1-.391-.212l-9.716-12.968c.021.211.031.412.031.6V149.4h-.94V134.459h.528A.591.591,0,0,1,145.06,134.5Z" transform="translate(-68.413 -134.291)"/>
      <path id="Path_27378" data-name="Path 27378" d="M173.393,136.251a.3.3,0,0,1-.275.18.618.618,0,0,1-.355-.2,4.438,4.438,0,0,0-.587-.433,4.642,4.642,0,0,0-.927-.439,4.666,4.666,0,0,0-2.807.032,2.993,2.993,0,0,0-1.038.633,2.707,2.707,0,0,0-.636.929,2.888,2.888,0,0,0-.217,1.11,2.27,2.27,0,0,0,.322,1.256,2.9,2.9,0,0,0,.852.845,5.558,5.558,0,0,0,1.2.586q.671.237,1.38.47t1.379.512a4.962,4.962,0,0,1,1.2.7,3.243,3.243,0,0,1,.852,1.04,3.3,3.3,0,0,1,.322,1.536,4.851,4.851,0,0,1-.322,1.769,4.138,4.138,0,0,1-.934,1.442,4.4,4.4,0,0,1-1.5.966,5.458,5.458,0,0,1-2.028.354,5.722,5.722,0,0,1-2.544-.523,6,6,0,0,1-1.87-1.431l.3-.464a.371.371,0,0,1,.3-.159.417.417,0,0,1,.243.128q.148.126.36.311c.141.124.311.257.508.4a4.167,4.167,0,0,0,.687.4,4.7,4.7,0,0,0,2.052.439,4.385,4.385,0,0,0,1.587-.269,3.491,3.491,0,0,0,1.179-.734,3.133,3.133,0,0,0,.735-1.1,3.678,3.678,0,0,0,.254-1.369,2.4,2.4,0,0,0-.324-1.3,2.772,2.772,0,0,0-.851-.856,5.532,5.532,0,0,0-1.2-.575q-.671-.232-1.38-.455t-1.38-.5a4.77,4.77,0,0,1-1.2-.7,3.221,3.221,0,0,1-.852-1.066,3.546,3.546,0,0,1-.322-1.6,3.767,3.767,0,0,1,.285-1.446,3.609,3.609,0,0,1,.835-1.231,4.1,4.1,0,0,1,1.359-.855,4.953,4.953,0,0,1,1.846-.323,5.591,5.591,0,0,1,2.088.37,5.031,5.031,0,0,1,1.687,1.13Z" transform="translate(-71.136 -134.265)"/>
      <path id="Path_27379" data-name="Path 27379" d="M194.262,149.4h-1.088v-7.16h-9.356v7.16h-1.089V134.459h1.089v6.972h9.356v-6.972h1.088Z" transform="translate(-73.503 -134.291)"/>
      <path id="Path_27380" data-name="Path 27380" d="M206.326,149.4h-1.088V134.459h1.088Z" transform="translate(-76.485 -134.291)"/>
      <path id="Path_27381" data-name="Path 27381" d="M217.161,143.383v6.02h-1.077V134.459h3.854a5.927,5.927,0,0,1,3.965,1.152,4.1,4.1,0,0,1,1.336,3.284,4.4,4.4,0,0,1-.364,1.806,3.993,3.993,0,0,1-1.051,1.42,4.9,4.9,0,0,1-1.668.93,6.91,6.91,0,0,1-2.218.332Zm0-.866h2.778a5.34,5.34,0,0,0,1.775-.274,3.913,3.913,0,0,0,1.325-.761,3.306,3.306,0,0,0,.835-1.146,3.541,3.541,0,0,0,.29-1.442,3.334,3.334,0,0,0-1.061-2.65,4.682,4.682,0,0,0-3.163-.929h-2.778Z" transform="translate(-77.921 -134.291)"/>
    </g>
  </g>
</svg>
