<svg xmlns="http://www.w3.org/2000/svg" width="318.207" height="40" viewBox="0 0 318.207 40">
  <g id="Group_4741" data-name="Group 4741" transform="translate(-4.965 -62.582)">
    <g id="Group_4735" data-name="Group 4735" transform="translate(4.965 62.582)">
      <path id="Path_27349" data-name="Path 27349" d="M93.891,90.98A56.876,56.876,0,0,0,90.084,84.2c-2.455-4.259-5.217-9.182-7.689-13.474-2.033-3.535-3.93-8.076-8.984-8.146-5.251-.075-7,4.565-8.906,7.916-6.053,10.64-18.423,32.052-18.423,32.052h5.71s11.8-20.886,17.663-31.444c.748-1.35,2.233-3.119,3.957-3.119,2.617,0,3.926,3.112,5.1,5.251,3.148,5.732,6.183,11.214,9.136,16.75.929,1.741,2.815,4.032,1.523,6.393-.843,1.543-2.54,1.449-4.949,1.449,0,.039-23.3,0-23.3,0v4.72H82.09a49.937,49.937,0,0,0,7-.229c3.344-.628,5.159-3.221,5.635-6.548v-.838A13.4,13.4,0,0,0,93.891,90.98Z" transform="translate(53.185 -62.581)" fill="#040405"/>
      <path id="Path_27350" data-name="Path 27350" d="M5.7,64.987H30.747L5.305,100.518a1.732,1.732,0,0,0-.34,1.019v1.045h29.4v-2.4H8.811L34.195,64.731a2,2,0,0,0,.4-1.159v-.99H5.7Z" transform="translate(-4.965 -62.582)" fill="#040405"/>
      <rect id="Rectangle_966" data-name="Rectangle 966" width="2.912" height="39.999" transform="translate(39.405 0.001)" fill="#040405"/>
      <path id="Path_27351" data-name="Path 27351" d="M64.7,62.667a1.03,1.03,0,0,0-.451.454L48.534,90.906a7.661,7.661,0,0,0-.41.835c-.123.292-.241.589-.352.888a11.688,11.688,0,0,0-.736-1.695L30.9,63.12a1.006,1.006,0,0,0-.468-.454,1.979,1.979,0,0,0-.635-.084h-1.98v40h2.516V68.49a14.951,14.951,0,0,0-.085-1.581L46.414,94.892a1.273,1.273,0,0,0,1.13.736H48a1.238,1.238,0,0,0,1.132-.736L64.871,66.935a15.487,15.487,0,0,0-.085,1.555v34.092h2.545v-40H65.325A1.849,1.849,0,0,0,64.7,62.667Z" transform="translate(27.347 -62.582)" fill="#040405"/>
    </g>
    <g id="Group_4740" data-name="Group 4740" transform="translate(152.369 62.582)" opacity="0.3">
      <g id="Group_4736" data-name="Group 4736">
        <path id="Path_27352" data-name="Path 27352" d="M97.085,62.582v2.46H83.036v37.54H80.153V65.042H66.02v-2.46Z" transform="translate(-66.02 -62.582)" fill="#161615"/>
      </g>
      <g id="Group_4737" data-name="Group 4737" transform="translate(44.609)">
        <path id="Path_27353" data-name="Path 27353" d="M108.468,62.582v2.4H87.411V81.155h17.525V83.5H87.411V100.18h21.057v2.4H84.5v-40Z" transform="translate(-84.497 -62.582)" fill="#161615"/>
      </g>
      <g id="Group_4738" data-name="Group 4738" transform="translate(82.124)">
        <path id="Path_27354" data-name="Path 27354" d="M135.652,102.582h-2.231a.976.976,0,0,1-.652-.212,1.394,1.394,0,0,1-.4-.55l-4.72-11.62H108.008l-4.693,11.62a1.213,1.213,0,0,1-.394.536,1.051,1.051,0,0,1-.678.227h-2.207l16.366-40h2.883ZM108.884,88.053H126.8L118.636,67.84c-.133-.319-.263-.683-.4-1.086s-.263-.835-.4-1.287c-.133.451-.263.881-.4,1.287s-.263.777-.394,1.115Z" transform="translate(-100.036 -62.582)" fill="#161615"/>
      </g>
      <g id="Group_4739" data-name="Group 4739" transform="translate(131.286)">
        <path id="Path_27355" data-name="Path 27355" d="M140.355,92.633c.114-.3.232-.6.353-.891a8.128,8.128,0,0,1,.41-.835L156.835,63.12a1.034,1.034,0,0,1,.451-.451,1.791,1.791,0,0,1,.623-.087h2.006v40h-2.542V68.492a14.748,14.748,0,0,1,.084-1.555L141.712,94.892a1.235,1.235,0,0,1-1.13.734h-.454a1.271,1.271,0,0,1-1.13-.734L122.83,66.908a15.676,15.676,0,0,1,.085,1.584v34.09H120.4v-40h1.977a1.911,1.911,0,0,1,.637.087,1,1,0,0,1,.466.451l16.139,27.815A11.349,11.349,0,0,1,140.355,92.633Z" transform="translate(-120.399 -62.582)" fill="#161615"/>
      </g>
    </g>
  </g>
</svg>
