<svg xmlns="http://www.w3.org/2000/svg" width="293.935" height="150" viewBox="0 0 293.935 150">
  <g id="Group_4760" data-name="Group 4760" transform="translate(-56.826 -98.403)">
    <g id="Group_4758" data-name="Group 4758" transform="translate(56.826 98.403)">
      <path id="Path_27382" data-name="Path 27382" d="M265.8,154.835c-1.837-4.589-4.935-8.9-7.564-13.463-4.88-8.466-10.37-18.248-15.281-26.778-4.043-7.026-7.812-16.049-17.851-16.19-10.439-.144-13.912,9.075-17.7,15.734-12.03,21.143-36.613,63.693-36.613,63.693h11.346s23.456-41.506,35.1-62.482c1.489-2.683,4.44-6.2,7.867-6.2,5.2,0,7.8,6.188,10.136,10.439,6.256,11.386,12.285,22.284,18.154,33.283,1.845,3.46,5.591,8.013,3.026,12.709-1.674,3.064-5.046,2.877-9.833,2.877-.007.078-46.294,0-46.294,0v9.378h42.058s9.9.3,13.917-.453c6.643-1.248,10.252-6.4,11.2-13.012V162.7A26.63,26.63,0,0,0,265.8,154.835Z" transform="translate(26.474 -98.403)"/>
      <path id="Path_27383" data-name="Path 27383" d="M58.287,103.178h49.772L57.5,173.79a3.444,3.444,0,0,0-.675,2.022v2.079h58.423v-4.776H64.466l50.445-70.442a3.967,3.967,0,0,0,.786-2.3V98.4H58.287Z" transform="translate(-56.826 -98.402)"/>
      <rect id="Rectangle_968" data-name="Rectangle 968" width="5.786" height="79.487" transform="translate(78.306 0.001)"/>
      <path id="Path_27384" data-name="Path 27384" d="M193.461,98.572a2.031,2.031,0,0,0-.9.9l-31.231,55.219a14.6,14.6,0,0,0-.815,1.658c-.244.58-.478,1.172-.7,1.769a22.821,22.821,0,0,0-1.461-3.37L126.276,99.47a1.986,1.986,0,0,0-.928-.9,3.884,3.884,0,0,0-1.264-.168h-3.933v79.487h5V110.143a30.516,30.516,0,0,0-.168-3.145l32.133,55.613a2.528,2.528,0,0,0,2.245,1.459h.9a2.452,2.452,0,0,0,2.247-1.459l31.29-55.558a30.081,30.081,0,0,0-.17,3.09v67.747h5.056V98.4H194.7A3.628,3.628,0,0,0,193.461,98.572Z" transform="translate(-10.538 -98.402)"/>
    </g>
    <g id="Group_4759" data-name="Group 4759" transform="translate(56.826 209.086)">
      <path id="Path_27385" data-name="Path 27385" d="M87.1,194.762a.635.635,0,0,1,.464.189l1.085,1.17a17.859,17.859,0,0,1-2.609,2.3,16.261,16.261,0,0,1-3.083,1.74,18.1,18.1,0,0,1-3.668,1.113,22.693,22.693,0,0,1-4.388.395,18.671,18.671,0,0,1-7.324-1.4,16.262,16.262,0,0,1-5.707-3.964,18.259,18.259,0,0,1-3.708-6.209,23.44,23.44,0,0,1-1.333-8.1A22.347,22.347,0,0,1,58.2,174a18.16,18.16,0,0,1,3.858-6.205,17.219,17.219,0,0,1,5.951-4.023,19.914,19.914,0,0,1,7.649-1.426,21.6,21.6,0,0,1,3.831.313,17.53,17.53,0,0,1,3.247.895,15.314,15.314,0,0,1,2.84,1.456,21.72,21.72,0,0,1,2.607,2.01l-.843,1.222a.755.755,0,0,1-.679.327,1.169,1.169,0,0,1-.625-.286c-.254-.19-.575-.426-.964-.706s-.86-.589-1.412-.924a11.59,11.59,0,0,0-1.97-.923,16.625,16.625,0,0,0-2.636-.708,18.362,18.362,0,0,0-3.4-.286,16.746,16.746,0,0,0-6.441,1.212,14.435,14.435,0,0,0-5.053,3.448,15.711,15.711,0,0,0-3.3,5.433,20.491,20.491,0,0,0-1.184,7.163,21.173,21.173,0,0,0,1.17,7.28,15.688,15.688,0,0,0,3.233,5.421,14.049,14.049,0,0,0,4.876,3.4,15.6,15.6,0,0,0,6.1,1.182A22.292,22.292,0,0,0,78.74,199a14.276,14.276,0,0,0,2.975-.814,13.39,13.39,0,0,0,2.527-1.331,19.452,19.452,0,0,0,2.311-1.847,1.822,1.822,0,0,1,.256-.178A.59.59,0,0,1,87.1,194.762Z" transform="translate(-56.826 -162.347)"/>
      <path id="Path_27386" data-name="Path 27386" d="M117.716,201.046h-2.146a.937.937,0,0,1-.625-.2,1.328,1.328,0,0,1-.381-.528l-4.537-11.168H91.142l-4.511,11.168a1.154,1.154,0,0,1-.381.514,1.009,1.009,0,0,1-.651.218H83.481L99.212,162.6h2.771ZM91.983,187.079h17.228l-7.853-19.426c-.126-.308-.254-.656-.381-1.046s-.253-.8-.379-1.236c-.126.434-.254.846-.381,1.236s-.254.748-.381,1.073Z" transform="translate(-37.343 -162.164)"/>
      <path id="Path_27387" data-name="Path 27387" d="M116.3,183.657v17.389h-2.771V162.6h9.809q6.655,0,9.944,2.569t3.287,7.54a10.363,10.363,0,0,1-.76,4.021,9.426,9.426,0,0,1-2.188,3.192,11.7,11.7,0,0,1-3.438,2.257,15.315,15.315,0,0,1-4.537,1.155,4.372,4.372,0,0,1,1.168,1.087l13.233,16.627h-2.42a1.587,1.587,0,0,1-.746-.164,1.917,1.917,0,0,1-.611-.544l-12.31-15.594a2.723,2.723,0,0,0-.99-.845,4.192,4.192,0,0,0-1.644-.242Zm0-2.065h6.683a15.867,15.867,0,0,0,4.58-.611,9.907,9.907,0,0,0,3.422-1.753,7.556,7.556,0,0,0,2.133-2.745,8.565,8.565,0,0,0,.736-3.612q0-4.1-2.692-6.086t-7.824-1.984H116.3Z" transform="translate(-15.382 -162.164)"/>
      <path id="Path_27388" data-name="Path 27388" d="M162.184,162.6v2.311H141.942v15.54h16.846V182.7H141.942v16.032h20.242v2.309H139.143V162.6Z" transform="translate(3.343 -162.164)"/>
      <path id="Path_27389" data-name="Path 27389" d="M187.017,162.6v2.311H166.775v15.54H183.62V182.7H166.775v16.032h20.242v2.309H163.976V162.6Z" transform="translate(21.495 -162.164)"/>
      <path id="Path_27390" data-name="Path 27390" d="M192.051,183.657v17.389H189.28V162.6h9.809q6.657,0,9.944,2.569t3.289,7.54a10.3,10.3,0,0,1-.762,4.021,9.446,9.446,0,0,1-2.186,3.192,11.731,11.731,0,0,1-3.439,2.257,15.317,15.317,0,0,1-4.535,1.155,4.34,4.34,0,0,1,1.167,1.087L215.8,201.046h-2.415a1.585,1.585,0,0,1-.748-.164,1.921,1.921,0,0,1-.613-.544l-12.309-15.594a2.737,2.737,0,0,0-.99-.845,4.208,4.208,0,0,0-1.646-.242Zm0-2.065h6.685a15.847,15.847,0,0,0,4.578-.611,9.931,9.931,0,0,0,3.424-1.753,7.6,7.6,0,0,0,2.134-2.745,8.618,8.618,0,0,0,.732-3.612q0-4.1-2.688-6.086t-7.827-1.984h-7.038Z" transform="translate(39.99 -162.164)"/>
      <path id="Path_27391" data-name="Path 27391" d="M234.921,167.455a.766.766,0,0,1-.708.462,1.559,1.559,0,0,1-.912-.5,11.774,11.774,0,0,0-3.9-2.242,12.053,12.053,0,0,0-7.225.081,7.755,7.755,0,0,0-2.671,1.631,6.923,6.923,0,0,0-1.636,2.392,7.4,7.4,0,0,0-.557,2.854,5.83,5.83,0,0,0,.827,3.232,7.45,7.45,0,0,0,2.191,2.172,14.114,14.114,0,0,0,3.088,1.509q1.729.61,3.55,1.208t3.552,1.319a12.782,12.782,0,0,1,3.088,1.807,8.315,8.315,0,0,1,2.191,2.676,8.492,8.492,0,0,1,.827,3.952,12.46,12.46,0,0,1-.827,4.552,10.609,10.609,0,0,1-2.4,3.709,11.3,11.3,0,0,1-3.858,2.487,14.02,14.02,0,0,1-5.217.909,14.7,14.7,0,0,1-6.546-1.345,15.412,15.412,0,0,1-4.812-3.682l.76-1.194a.954.954,0,0,1,.763-.407,1.08,1.08,0,0,1,.625.325c.254.218.563.483.924.8s.8.66,1.307,1.03a10.781,10.781,0,0,0,1.769,1.035,12.518,12.518,0,0,0,2.313.8,12.252,12.252,0,0,0,2.967.327,11.274,11.274,0,0,0,4.082-.692,8.923,8.923,0,0,0,3.033-1.888,8.013,8.013,0,0,0,1.892-2.84,9.46,9.46,0,0,0,.653-3.517,6.222,6.222,0,0,0-.829-3.356,7.185,7.185,0,0,0-2.191-2.2,14.26,14.26,0,0,0-3.088-1.48q-1.729-.6-3.55-1.168t-3.554-1.277a12.221,12.221,0,0,1-3.088-1.807,8.22,8.22,0,0,1-2.188-2.745,9.071,9.071,0,0,1-.833-4.116,9.72,9.72,0,0,1,.736-3.722,9.245,9.245,0,0,1,2.152-3.164,10.541,10.541,0,0,1,3.495-2.2,12.729,12.729,0,0,1,4.748-.829,14.387,14.387,0,0,1,5.373.95,12.882,12.882,0,0,1,4.339,2.91Z" transform="translate(57.303 -162.347)"/>
    </g>
  </g>
</svg>
