<svg xmlns="http://www.w3.org/2000/svg" width="1000" height="244.64" viewBox="0 0 1000 244.64">
  <g id="Group_4749" data-name="Group 4749" transform="translate(-56.415 -116.364)" opacity="0.1">
    <path id="Path_1" data-name="Path 1" d="M365.624,319.38v-5.12a79.357,79.357,0,0,0-5.321-24.214c-5.874-14.122-15.781-27.394-24.195-41.436-15.61-26.059-33.173-56.162-48.877-82.414-12.929-21.623-24.988-49.4-57.1-49.826-33.39-.441-44.5,27.932-56.615,48.429-38.476,65.068-117.1,196.023-117.1,196.023h36.3s75.018-127.742,112.259-192.3c4.762-8.254,14.205-19.088,25.165-19.088,16.628,0,24.947,19.043,32.42,32.123,20.014,35.048,39.3,68.587,58.067,102.441,5.9,10.642,17.886,24.656,9.678,39.11-5.351,9.431-16.14,8.849-31.45,8.849-.024.243-148.072,0-148.072,0v28.865H285.3s31.674.928,44.52-1.4C351.06,355.588,362.608,339.73,365.624,319.38Z" transform="translate(0 0)"/>
    <path id="Path_2" data-name="Path 2" d="M99.743,157.984v5.126a79.324,79.324,0,0,0,5.321,24.209c5.874,14.127,15.781,27.394,24.195,41.442,15.61,26.053,33.167,56.162,48.872,82.413,12.935,21.617,24.988,49.39,57.1,49.82,33.391.447,44.5-27.926,56.615-48.423,38.476-65.073,117.1-196.023,117.1-196.023H372.657s-75.018,127.736-112.265,192.3c-4.756,8.254-14.2,19.089-25.159,19.089-16.634,0-24.953-19.043-32.42-32.129-20.014-35.043-39.3-68.581-58.067-102.436-5.9-10.647-17.886-24.656-9.678-39.111,5.35-9.431,16.133-8.854,31.45-8.854.017-.237,148.072,0,148.072,0V116.548H180.07s-31.673-.928-44.521,1.392C114.307,121.781,102.759,137.639,99.743,157.984Z" transform="translate(211.424 0.002)"/>
    <path id="Path_3" data-name="Path 3" d="M439.786,319.38v-5.12a79.339,79.339,0,0,0-5.321-24.214c-5.874-14.122-15.781-27.394-24.195-41.436C394.659,222.55,377.1,192.447,361.4,166.2c-12.935-21.623-24.988-49.4-57.1-49.826-33.39-.441-44.5,27.932-56.615,48.429-38.476,65.068-117.1,196.023-117.1,196.023h36.295s75.018-127.742,112.266-192.3c4.763-8.254,14.2-19.088,25.159-19.088,16.634,0,24.953,19.043,32.42,32.123C356.73,216.6,376.015,250.143,394.783,284c5.909,10.642,17.886,24.656,9.678,39.11-5.351,9.431-16.134,8.849-31.45,8.849-.018.243-148.072,0-148.072,0v28.865H359.464s31.668.928,44.514-1.4C425.222,355.588,436.769,339.73,439.786,319.38Z" transform="translate(361.877 0)"/>
    <path id="Path_4" data-name="Path 4" d="M173.9,157.984v5.126a79.326,79.326,0,0,0,5.321,24.209c5.874,14.127,15.787,27.394,24.195,41.442,15.611,26.053,33.173,56.162,48.877,82.413,12.929,21.617,24.988,49.39,57.1,49.82,33.39.447,44.5-27.926,56.615-48.423,38.476-65.073,117.1-196.023,117.1-196.023h-36.3s-75.018,127.736-112.26,192.3c-4.763,8.254-14.205,19.089-25.165,19.089-16.628,0-24.947-19.043-32.42-32.129-20.014-35.043-39.293-68.581-58.067-102.436-5.9-10.647-17.886-24.656-9.678-39.111,5.351-9.431,16.14-8.854,31.456-8.854.018-.237,148.067,0,148.067,0V116.548H254.231s-31.673-.928-44.52,1.392C188.468,121.781,176.921,137.639,173.9,157.984Z" transform="translate(573.302 0.002)"/>
  </g>
</svg>
