<svg xmlns="http://www.w3.org/2000/svg" xmlns:xlink="http://www.w3.org/1999/xlink" width="542.005" height="75" viewBox="0 0 542.005 75">
  <defs>
    <clipPath id="clip-path">
      <rect id="Rectangle_969" data-name="Rectangle 969" width="542.005" height="75" fill="none"/>
    </clipPath>
  </defs>
  <g id="Group_4778" data-name="Group 4778" transform="translate(0 0)">
    <g id="Group_4777" data-name="Group 4777" transform="translate(0 0)" clip-path="url(#clip-path)">
      <path id="Path_27400" data-name="Path 27400" d="M181.1,53.247c-1.732-4.331-4.655-8.4-7.138-12.7-4.6-7.988-9.786-17.218-14.418-25.268C155.727,8.648,152.169.132,142.7,0c-9.851-.136-13.126,8.562-16.7,14.845-11.351,19.95-34.545,60.1-34.545,60.1h10.706s22.132-39.163,33.118-58.956c1.4-2.53,4.191-5.851,7.423-5.851,4.905,0,7.36,5.837,9.564,9.849,5.9,10.744,11.593,21.026,17.131,31.4,1.74,3.265,5.275,7.561,2.853,11.992-1.577,2.89-4.76,2.713-9.277,2.713-.006.073-43.683,0-43.683,0v8.849h39.686s9.342.283,13.132-.427c6.269-1.178,9.674-6.039,10.565-12.277V60.669a25.2,25.2,0,0,0-1.571-7.423" transform="translate(94.677 -0.001)"/>
      <path id="Path_27401" data-name="Path 27401" d="M1.378,4.506H48.34L.635,71.133A3.253,3.253,0,0,0,0,73.04V75H55.123V70.5H7.209l47.6-66.468a3.744,3.744,0,0,0,.743-2.172V0H1.378Z" transform="translate(0 -0.001)"/>
      <rect id="Rectangle_968" data-name="Rectangle 968" width="5.461" height="75" transform="translate(73.887)"/>
      <path id="Path_27402" data-name="Path 27402" d="M119.988.159a1.924,1.924,0,0,0-.849.847L89.67,53.109a13.965,13.965,0,0,0-.769,1.565c-.23.547-.45,1.105-.661,1.669a21.7,21.7,0,0,0-1.38-3.179L56.6,1.005A1.874,1.874,0,0,0,55.72.159,3.671,3.671,0,0,0,54.527,0h-3.71V75h4.718V11.076a28.933,28.933,0,0,0-.159-2.967L85.694,60.584a2.391,2.391,0,0,0,2.121,1.378h.849a2.318,2.318,0,0,0,2.121-1.378L120.305,8.161a28.482,28.482,0,0,0-.159,2.915V75h4.771V0h-3.763a3.433,3.433,0,0,0-1.166.159" transform="translate(52.61 -0.001)"/>
      <path id="Path_27403" data-name="Path 27403" d="M198.114,0a3.454,3.454,0,0,0-1.168.159,1.939,1.939,0,0,0-.847.849l-29.471,52.1a14.29,14.29,0,0,0-.767,1.563c-.23.55-.45,1.105-.663,1.669a21.482,21.482,0,0,0-1.378-3.179L133.555,1.007a2.806,2.806,0,0,0-.33-.425V9.651l29.428,50.933a2.391,2.391,0,0,0,2.121,1.378h.849a2.316,2.316,0,0,0,2.121-1.378L197.265,8.164a27.869,27.869,0,0,0-.159,2.915V75h4.769V0Z" transform="translate(137.925 -0.001)" fill="#999"/>
      <path id="Path_27404" data-name="Path 27404" d="M220.826,0V4.506H181.338V34.824H214.2v4.4H181.338V70.5h39.488V75H175.879V0Z" transform="translate(182.084 -0.001)" fill="#999"/>
      <path id="Path_27405" data-name="Path 27405" d="M252,0V4.506H212.513V34.824h32.862v4.4H212.513V70.5H252V75H207.055V0Z" transform="translate(214.359 -0.001)" fill="#999"/>
      <path id="Path_27406" data-name="Path 27406" d="M295.936,0V4.612H269.593V75h-5.408V4.612h-26.5V0Z" transform="translate(246.069 -0.001)" fill="#999"/>
    </g>
  </g>
</svg>
