<svg xmlns="http://www.w3.org/2000/svg" width="639.81" height="151.2" viewBox="0 0 639.81 151.2">
  <g id="Group_4791" data-name="Group 4791" transform="translate(-640 -766)">
    <path id="Path_27452" data-name="Path 27452" d="M28.32-14.32A16.139,16.139,0,0,1,27.3-8.46a13,13,0,0,1-2.88,4.52,12.84,12.84,0,0,1-4.46,2.91A15.512,15.512,0,0,1,14.2,0H3.48V-28.66H14.2a15.512,15.512,0,0,1,5.76,1.03,12.77,12.77,0,0,1,4.46,2.92,13.1,13.1,0,0,1,2.88,4.53A16.139,16.139,0,0,1,28.32-14.32Zm-3.98,0a14.385,14.385,0,0,0-.72-4.72,9.948,9.948,0,0,0-2.04-3.52,8.7,8.7,0,0,0-3.2-2.2,11.059,11.059,0,0,0-4.18-.76H7.38V-3.14H14.2a11.059,11.059,0,0,0,4.18-.76,8.757,8.757,0,0,0,3.2-2.19A9.844,9.844,0,0,0,23.62-9.6,14.385,14.385,0,0,0,24.34-14.32ZM44.2,0H40.32V-28.66H44.2ZM72.56-24.18a1.551,1.551,0,0,1-.38.45.844.844,0,0,1-.52.15,1.385,1.385,0,0,1-.79-.34,12.592,12.592,0,0,0-1.14-.75,9.252,9.252,0,0,0-1.66-.75,7.143,7.143,0,0,0-2.35-.34,6.949,6.949,0,0,0-2.3.35,4.89,4.89,0,0,0-1.67.95,3.9,3.9,0,0,0-1.01,1.41,4.475,4.475,0,0,0-.34,1.75,3.234,3.234,0,0,0,.59,1.99,5.083,5.083,0,0,0,1.56,1.35,11.951,11.951,0,0,0,2.2.97q1.23.41,2.52.85t2.52.99a8.864,8.864,0,0,1,2.2,1.39,6.337,6.337,0,0,1,1.56,2.06,6.856,6.856,0,0,1,.59,3,9.675,9.675,0,0,1-.64,3.53A8.138,8.138,0,0,1,71.63-2.3,8.748,8.748,0,0,1,68.61-.38a11.108,11.108,0,0,1-4.07.7A12.428,12.428,0,0,1,59.47-.69a11.892,11.892,0,0,1-3.91-2.73l1.12-1.84a1.473,1.473,0,0,1,.39-.37.914.914,0,0,1,.51-.15,1.591,1.591,0,0,1,.96.45,16,16,0,0,0,1.35.99,10.312,10.312,0,0,0,1.96.99,7.735,7.735,0,0,0,2.81.45,7.389,7.389,0,0,0,2.46-.38,5.225,5.225,0,0,0,1.83-1.07A4.636,4.636,0,0,0,70.1-6a5.514,5.514,0,0,0,.4-2.14,3.591,3.591,0,0,0-.59-2.13,4.891,4.891,0,0,0-1.55-1.39,10.835,10.835,0,0,0-2.19-.95l-2.52-.8a25.411,25.411,0,0,1-2.52-.95,8.19,8.19,0,0,1-2.19-1.4,6.433,6.433,0,0,1-1.55-2.15,7.658,7.658,0,0,1-.59-3.19,7.591,7.591,0,0,1,.59-2.94,7.578,7.578,0,0,1,1.71-2.52,8.288,8.288,0,0,1,2.77-1.76,10.147,10.147,0,0,1,3.79-.66,12.131,12.131,0,0,1,4.38.76,10.087,10.087,0,0,1,3.46,2.2ZM105.28-5.92a.8.8,0,0,1,.58.26L107.38-4a12.261,12.261,0,0,1-4.27,3.18A14.559,14.559,0,0,1,97.06.32,14.243,14.243,0,0,1,91.44-.75a12.317,12.317,0,0,1-4.3-3,13.561,13.561,0,0,1-2.76-4.63,17.3,17.3,0,0,1-.98-5.94,16.257,16.257,0,0,1,1.05-5.94A13.573,13.573,0,0,1,87.4-24.9a13.2,13.2,0,0,1,4.55-3.01,15.488,15.488,0,0,1,5.85-1.07,13.8,13.8,0,0,1,5.45.98,13.773,13.773,0,0,1,4.07,2.66l-1.26,1.78a1.373,1.373,0,0,1-.32.33.881.881,0,0,1-.52.13,1.013,1.013,0,0,1-.55-.19q-.29-.19-.69-.47t-.94-.6a8.238,8.238,0,0,0-1.28-.6,10.575,10.575,0,0,0-1.72-.47,11.973,11.973,0,0,0-2.26-.19,10.912,10.912,0,0,0-4.21.79,9.427,9.427,0,0,0-3.29,2.25,10.237,10.237,0,0,0-2.15,3.56,13.576,13.576,0,0,0-.77,4.7,13.827,13.827,0,0,0,.77,4.78,10.554,10.554,0,0,0,2.1,3.55,8.854,8.854,0,0,0,3.15,2.21,10.07,10.07,0,0,0,3.92.76,15.918,15.918,0,0,0,2.3-.15,9.446,9.446,0,0,0,1.89-.47,8,8,0,0,0,1.62-.81,12.668,12.668,0,0,0,1.51-1.17A1.016,1.016,0,0,1,105.28-5.92Zm39.82-8.4a16.543,16.543,0,0,1-1.02,5.91,13.534,13.534,0,0,1-2.88,4.63,12.872,12.872,0,0,1-4.47,3.01A15.074,15.074,0,0,1,130.96.3,15,15,0,0,1,125.2-.77a12.893,12.893,0,0,1-4.46-3.01,13.534,13.534,0,0,1-2.88-4.63,16.543,16.543,0,0,1-1.02-5.91,16.543,16.543,0,0,1,1.02-5.91,13.642,13.642,0,0,1,2.88-4.64,12.942,12.942,0,0,1,4.46-3.03,14.876,14.876,0,0,1,5.76-1.08,14.951,14.951,0,0,1,5.77,1.08,12.92,12.92,0,0,1,4.47,3.03,13.642,13.642,0,0,1,2.88,4.64A16.543,16.543,0,0,1,145.1-14.32Zm-3.98,0a14.565,14.565,0,0,0-.72-4.74,10.026,10.026,0,0,0-2.04-3.55,8.852,8.852,0,0,0-3.2-2.23,10.863,10.863,0,0,0-4.2-.78,10.809,10.809,0,0,0-4.18.78,8.948,8.948,0,0,0-3.21,2.23,9.944,9.944,0,0,0-2.05,3.55,14.565,14.565,0,0,0-.72,4.74,14.475,14.475,0,0,0,.72,4.73,9.957,9.957,0,0,0,2.05,3.54,8.841,8.841,0,0,0,3.21,2.22,10.932,10.932,0,0,0,4.18.77,10.987,10.987,0,0,0,4.2-.77,8.748,8.748,0,0,0,3.2-2.22,10.039,10.039,0,0,0,2.04-3.54A14.475,14.475,0,0,0,141.12-14.32Zm10.92-14.34h3.1a1.291,1.291,0,0,1,.84.26,1.6,1.6,0,0,1,.48.66l8.1,20.22a14.182,14.182,0,0,1,.51,1.48q.23.8.45,1.66.18-.86.39-1.66a11.67,11.67,0,0,1,.49-1.48l8.06-20.22a1.676,1.676,0,0,1,.48-.63,1.25,1.25,0,0,1,.84-.29h3.12L167.22,0h-3.5Zm54.18,0v3.16H192.46v9.52H203.6v3.04H192.46v9.78h13.76V0H188.56V-28.66Zm15.84,16.7V0H218.2V-28.66h8.1a17.7,17.7,0,0,1,4.7.55,8.97,8.97,0,0,1,3.27,1.59,6.367,6.367,0,0,1,1.91,2.51,8.389,8.389,0,0,1,.62,3.29,8.248,8.248,0,0,1-.48,2.84,7.5,7.5,0,0,1-1.39,2.37,8.316,8.316,0,0,1-2.22,1.79,10.99,10.99,0,0,1-2.97,1.12,4.1,4.1,0,0,1,1.28,1.22L239.38,0h-3.44a1.7,1.7,0,0,1-1.56-.82l-7.44-10.24a2.167,2.167,0,0,0-.74-.69,2.668,2.668,0,0,0-1.2-.21Zm0-2.82h4.06a9.884,9.884,0,0,0,2.99-.41,6.084,6.084,0,0,0,2.16-1.16,4.811,4.811,0,0,0,1.31-1.79,5.845,5.845,0,0,0,.44-2.3,4.568,4.568,0,0,0-1.69-3.86,8.168,8.168,0,0,0-5.03-1.3h-4.24Z" transform="translate(636.52 794.98)"/>
    <path id="Path_27453" data-name="Path 27453" d="M45.15-21.48a24.815,24.815,0,0,1-1.53,8.865A20.3,20.3,0,0,1,39.3-5.67,19.308,19.308,0,0,1,32.6-1.155,22.611,22.611,0,0,1,23.94.45,22.5,22.5,0,0,1,15.3-1.155,19.34,19.34,0,0,1,8.61-5.67a20.3,20.3,0,0,1-4.32-6.945A24.815,24.815,0,0,1,2.76-21.48a24.815,24.815,0,0,1,1.53-8.865,20.463,20.463,0,0,1,4.32-6.96A19.413,19.413,0,0,1,15.3-41.85a22.314,22.314,0,0,1,8.64-1.62A22.426,22.426,0,0,1,32.6-41.85,19.38,19.38,0,0,1,39.3-37.305a20.463,20.463,0,0,1,4.32,6.96A24.815,24.815,0,0,1,45.15-21.48Zm-5.97,0a21.848,21.848,0,0,0-1.08-7.11,15.039,15.039,0,0,0-3.06-5.325,13.278,13.278,0,0,0-4.8-3.345,16.3,16.3,0,0,0-6.3-1.17,16.213,16.213,0,0,0-6.27,1.17,13.421,13.421,0,0,0-4.815,3.345A14.916,14.916,0,0,0,9.78-28.59,21.848,21.848,0,0,0,8.7-21.48a21.712,21.712,0,0,0,1.08,7.1,14.936,14.936,0,0,0,3.075,5.31,13.262,13.262,0,0,0,4.815,3.33A16.4,16.4,0,0,0,23.94-4.59a16.481,16.481,0,0,0,6.3-1.155,13.122,13.122,0,0,0,4.8-3.33,15.058,15.058,0,0,0,3.06-5.31A21.712,21.712,0,0,0,39.18-21.48ZM65.1-42.99a2.611,2.611,0,0,1,1.155.195A2.988,2.988,0,0,1,67.11-42L92.01-9.6q-.09-.78-.12-1.515t-.03-1.425V-42.99h5.1V0H94.02a2.5,2.5,0,0,1-1.155-.24,2.916,2.916,0,0,1-.915-.81L67.08-33.42q.06.75.09,1.47t.03,1.32V0H62.1V-42.99Zm77.85,0v4.74H122.31v14.28h16.71v4.56H122.31V-4.74h20.64V0H116.46V-42.99Zm44.34,26.91V0H181.5V-42.99h12.69a23.812,23.812,0,0,1,7.1.945,13.629,13.629,0,0,1,5,2.685,10.821,10.821,0,0,1,2.955,4.2,14.785,14.785,0,0,1,.975,5.49,13.991,13.991,0,0,1-1.05,5.49,11.811,11.811,0,0,1-3.075,4.29,14.284,14.284,0,0,1-5.025,2.805,21.6,21.6,0,0,1-6.87,1.005Zm0-4.62h6.9a13.408,13.408,0,0,0,4.4-.66,9.013,9.013,0,0,0,3.2-1.845,7.662,7.662,0,0,0,1.95-2.835,9.69,9.69,0,0,0,.66-3.63,8.247,8.247,0,0,0-2.535-6.42q-2.535-2.31-7.665-2.31h-6.9ZM232.38-4.89h18.6V0H226.56V-42.99h5.82ZM301.77,0h-4.5a1.936,1.936,0,0,1-1.26-.39,2.4,2.4,0,0,1-.72-.99l-4.02-10.38H271.98L267.96-1.38a2.344,2.344,0,0,1-.72.96,1.917,1.917,0,0,1-1.26.42h-4.5l17.19-42.99h5.91ZM273.6-15.96h16.05L282.9-33.45a32.69,32.69,0,0,1-1.29-4.05q-.33,1.23-.645,2.265t-.615,1.815Zm67.92-27.03v4.89H327.63V0h-5.82V-38.1H307.86v-4.89Zm41.61,0v4.74H362.49v15.03h17.64v4.74H362.49V0h-5.85V-42.99Zm56.4,21.51A24.815,24.815,0,0,1,438-12.615a20.3,20.3,0,0,1-4.32,6.945,19.307,19.307,0,0,1-6.7,4.515A22.611,22.611,0,0,1,418.32.45a22.5,22.5,0,0,1-8.64-1.605,19.34,19.34,0,0,1-6.69-4.515,20.3,20.3,0,0,1-4.32-6.945,24.815,24.815,0,0,1-1.53-8.865,24.815,24.815,0,0,1,1.53-8.865,20.463,20.463,0,0,1,4.32-6.96,19.413,19.413,0,0,1,6.69-4.545,22.315,22.315,0,0,1,8.64-1.62,22.426,22.426,0,0,1,8.655,1.62,19.38,19.38,0,0,1,6.7,4.545,20.463,20.463,0,0,1,4.32,6.96A24.815,24.815,0,0,1,439.53-21.48Zm-5.97,0a21.848,21.848,0,0,0-1.08-7.11,15.039,15.039,0,0,0-3.06-5.325,13.279,13.279,0,0,0-4.8-3.345,16.3,16.3,0,0,0-6.3-1.17,16.213,16.213,0,0,0-6.27,1.17,13.421,13.421,0,0,0-4.815,3.345,14.916,14.916,0,0,0-3.075,5.325,21.848,21.848,0,0,0-1.08,7.11,21.712,21.712,0,0,0,1.08,7.1,14.936,14.936,0,0,0,3.075,5.31,13.262,13.262,0,0,0,4.815,3.33,16.4,16.4,0,0,0,6.27,1.155,16.481,16.481,0,0,0,6.3-1.155,13.122,13.122,0,0,0,4.8-3.33,15.058,15.058,0,0,0,3.06-5.31A21.712,21.712,0,0,0,433.56-21.48Zm29.31,3.54V0h-5.79V-42.99h12.15a26.548,26.548,0,0,1,7.05.825,13.455,13.455,0,0,1,4.9,2.385,9.55,9.55,0,0,1,2.865,3.765,12.583,12.583,0,0,1,.93,4.935,12.371,12.371,0,0,1-.72,4.26,11.251,11.251,0,0,1-2.085,3.555,12.474,12.474,0,0,1-3.33,2.685,16.485,16.485,0,0,1-4.455,1.68,6.146,6.146,0,0,1,1.92,1.83L488.85,0h-5.16a2.544,2.544,0,0,1-2.34-1.23L470.19-16.59a3.25,3.25,0,0,0-1.11-1.035,4,4,0,0,0-1.8-.315Zm0-4.23h6.09a14.827,14.827,0,0,0,4.485-.615,9.126,9.126,0,0,0,3.24-1.74,7.217,7.217,0,0,0,1.965-2.685,8.768,8.768,0,0,0,.66-3.45,6.852,6.852,0,0,0-2.535-5.79q-2.535-1.95-7.545-1.95h-6.36Zm62.4,6.63a11.167,11.167,0,0,1,.735,1.515q.315.8.615,1.6.3-.84.63-1.6T528-15.57L542.55-42a1.726,1.726,0,0,1,.81-.84,3.73,3.73,0,0,1,1.2-.15h4.29V0h-5.1V-31.59q0-.63.03-1.35t.09-1.47L529.14-7.53a2.313,2.313,0,0,1-2.1,1.35h-.84a2.313,2.313,0,0,1-2.1-1.35L509.04-34.5q.09.78.135,1.53t.045,1.38V0h-5.1V-42.99h4.29a3.73,3.73,0,0,1,1.2.15,1.727,1.727,0,0,1,.81.84Z" transform="translate(637.24 868.47)"/>
    <path id="Path_27454" data-name="Path 27454" d="M11.5-14.33v1.63H6.87V0H4.93V-12.7H.28v-1.63ZM28.87-7.16A8.272,8.272,0,0,1,28.36-4.2,6.767,6.767,0,0,1,26.92-1.89,6.436,6.436,0,0,1,24.685-.385,7.537,7.537,0,0,1,21.8.15a7.5,7.5,0,0,1-2.88-.535A6.447,6.447,0,0,1,16.69-1.89,6.767,6.767,0,0,1,15.25-4.2a8.272,8.272,0,0,1-.51-2.955,8.272,8.272,0,0,1,.51-2.955,6.821,6.821,0,0,1,1.44-2.32,6.471,6.471,0,0,1,2.23-1.515,7.438,7.438,0,0,1,2.88-.54,7.475,7.475,0,0,1,2.885.54,6.46,6.46,0,0,1,2.235,1.515,6.821,6.821,0,0,1,1.44,2.32A8.272,8.272,0,0,1,28.87-7.16Zm-1.99,0a7.283,7.283,0,0,0-.36-2.37,5.013,5.013,0,0,0-1.02-1.775,4.426,4.426,0,0,0-1.6-1.115,5.432,5.432,0,0,0-2.1-.39,5.4,5.4,0,0,0-2.09.39,4.474,4.474,0,0,0-1.6,1.115A4.972,4.972,0,0,0,17.08-9.53a7.283,7.283,0,0,0-.36,2.37A7.237,7.237,0,0,0,17.08-4.8,4.979,4.979,0,0,0,18.1-3.025a4.421,4.421,0,0,0,1.6,1.11,5.466,5.466,0,0,0,2.09.385,5.494,5.494,0,0,0,2.1-.385,4.374,4.374,0,0,0,1.6-1.11A5.019,5.019,0,0,0,26.52-4.8,7.237,7.237,0,0,0,26.88-7.16ZM40.91-1.41a9.494,9.494,0,0,0,1.065-.055,6.77,6.77,0,0,0,.915-.165,6.232,6.232,0,0,0,.81-.265q.38-.155.76-.355V-5.41H42.24a.423.423,0,0,1-.305-.11.359.359,0,0,1-.115-.27v-1.1h4.4v5.5A7.95,7.95,0,0,1,45.1-.71a7.663,7.663,0,0,1-1.25.485,9.051,9.051,0,0,1-1.425.29,13.342,13.342,0,0,1-1.65.1,7.445,7.445,0,0,1-2.86-.535,6.586,6.586,0,0,1-2.24-1.5A6.81,6.81,0,0,1,34.2-4.19a8.128,8.128,0,0,1-.525-2.97,8.328,8.328,0,0,1,.515-2.99,6.578,6.578,0,0,1,1.47-2.315,6.569,6.569,0,0,1,2.31-1.495,8.272,8.272,0,0,1,3.035-.53,9.374,9.374,0,0,1,1.58.125,7.386,7.386,0,0,1,1.355.36,6.312,6.312,0,0,1,1.155.57,7.057,7.057,0,0,1,.99.755l-.55.88a.506.506,0,0,1-.44.27.709.709,0,0,1-.35-.11q-.25-.14-.56-.34a4.8,4.8,0,0,0-.755-.385,6.079,6.079,0,0,0-1.05-.315,6.912,6.912,0,0,0-1.435-.13,5.811,5.811,0,0,0-2.19.4,4.632,4.632,0,0,0-1.67,1.13,5,5,0,0,0-1.06,1.78,6.993,6.993,0,0,0-.37,2.345,7.106,7.106,0,0,0,.385,2.425A5.121,5.121,0,0,0,37.13-2.93,4.683,4.683,0,0,0,38.79-1.8,5.583,5.583,0,0,0,40.91-1.41ZM61.03-14.33v1.58H54.15v4.76h5.57v1.52H54.15v4.89h6.88V0H52.2V-14.33Zm15.55,0v1.63H71.95V0H70.01V-12.7H65.36v-1.63ZM93.24,0H91.29V-6.52H83.57V0H81.62V-14.33h1.95v6.39h7.72v-6.39h1.95Zm15.33-14.33v1.58h-6.88v4.76h5.57v1.52h-5.57v4.89h6.88V0H99.74V-14.33Zm7.92,8.35V0h-1.93V-14.33h4.05a8.849,8.849,0,0,1,2.35.275,4.485,4.485,0,0,1,1.635.795,3.183,3.183,0,0,1,.955,1.255,4.194,4.194,0,0,1,.31,1.645,4.124,4.124,0,0,1-.24,1.42,3.75,3.75,0,0,1-.695,1.185,4.158,4.158,0,0,1-1.11.895,5.5,5.5,0,0,1-1.485.56,2.049,2.049,0,0,1,.64.61L125.15,0h-1.72a.848.848,0,0,1-.78-.41l-3.72-5.12a1.083,1.083,0,0,0-.37-.345,1.334,1.334,0,0,0-.6-.105Zm0-1.41h2.03a4.942,4.942,0,0,0,1.495-.2,3.042,3.042,0,0,0,1.08-.58,2.406,2.406,0,0,0,.655-.9,2.923,2.923,0,0,0,.22-1.15,2.284,2.284,0,0,0-.845-1.93,4.084,4.084,0,0,0-2.515-.65h-2.12Zm12.95,6.16a1.125,1.125,0,0,1,.085-.435,1.1,1.1,0,0,1,.24-.36,1.126,1.126,0,0,1,.375-.245,1.256,1.256,0,0,1,.48-.09,1.248,1.248,0,0,1,.535.11,1.069,1.069,0,0,1,.39.3,1.378,1.378,0,0,1,.235.45,1.846,1.846,0,0,1,.08.555,3.608,3.608,0,0,1-.13.935,4.993,4.993,0,0,1-.37.96,5.5,5.5,0,0,1-.6.925,5.731,5.731,0,0,1-.8.83l-.3-.29a.37.37,0,0,1-.13-.28.4.4,0,0,1,.14-.27q.1-.11.255-.295a4.865,4.865,0,0,0,.315-.425,3.99,3.99,0,0,0,.295-.53A2.538,2.538,0,0,0,130.73,0h-.13a1.182,1.182,0,0,1-.47-.09,1.078,1.078,0,0,1-.365-.255,1.163,1.163,0,0,1-.24-.39A1.391,1.391,0,0,1,129.44-1.23Zm13.3-13.1h1.61a.687.687,0,0,1,.43.13.637.637,0,0,1,.23.33l2.96,9.96q.08.27.145.58t.125.65q.07-.34.14-.655a5.235,5.235,0,0,1,.16-.575l3.37-9.96a.732.732,0,0,1,.235-.315.644.644,0,0,1,.425-.145h.56a.666.666,0,0,1,.425.13.71.71,0,0,1,.235.33l3.35,9.96a9.769,9.769,0,0,1,.32,1.19q.06-.33.11-.63a4.321,4.321,0,0,1,.13-.56l2.97-9.96a.625.625,0,0,1,.225-.32.659.659,0,0,1,.425-.14h1.51L158.36,0h-1.74l-3.63-10.93a6.048,6.048,0,0,1-.2-.72q-.05.2-.1.385t-.1.335L148.95,0h-1.74Zm33.81,0v1.58h-6.88v4.76h5.57v1.52h-5.57v4.89h6.88V0h-8.83V-14.33ZM199.3-2.96a.4.4,0,0,1,.29.13l.76.83a6.131,6.131,0,0,1-2.135,1.59,7.28,7.28,0,0,1-3.025.57,7.121,7.121,0,0,1-2.81-.535,6.159,6.159,0,0,1-2.15-1.5,6.781,6.781,0,0,1-1.38-2.315,8.648,8.648,0,0,1-.49-2.97,8.128,8.128,0,0,1,.525-2.97,6.786,6.786,0,0,1,1.475-2.32,6.6,6.6,0,0,1,2.275-1.505,7.744,7.744,0,0,1,2.925-.535,6.9,6.9,0,0,1,2.725.49,6.887,6.887,0,0,1,2.035,1.33l-.63.89a.686.686,0,0,1-.16.165.44.44,0,0,1-.26.065.506.506,0,0,1-.275-.095q-.145-.095-.345-.235t-.47-.3a4.12,4.12,0,0,0-.64-.3,5.287,5.287,0,0,0-.86-.235,5.986,5.986,0,0,0-1.13-.095,5.456,5.456,0,0,0-2.1.4A4.713,4.713,0,0,0,191.8-11.29a5.118,5.118,0,0,0-1.075,1.78,6.788,6.788,0,0,0-.385,2.35,6.913,6.913,0,0,0,.385,2.39A5.277,5.277,0,0,0,191.775-3,4.427,4.427,0,0,0,193.35-1.89a5.035,5.035,0,0,0,1.96.38,7.959,7.959,0,0,0,1.15-.075,4.723,4.723,0,0,0,.945-.235,4,4,0,0,0,.81-.4,6.334,6.334,0,0,0,.755-.585A.508.508,0,0,1,199.3-2.96Zm8.73-3.02V0H206.1V-14.33h4.05a8.849,8.849,0,0,1,2.35.275,4.485,4.485,0,0,1,1.635.795,3.183,3.183,0,0,1,.955,1.255,4.194,4.194,0,0,1,.31,1.645,4.124,4.124,0,0,1-.24,1.42,3.75,3.75,0,0,1-.7,1.185,4.158,4.158,0,0,1-1.11.895,5.5,5.5,0,0,1-1.485.56,2.049,2.049,0,0,1,.64.61L216.69,0h-1.72a.848.848,0,0,1-.78-.41l-3.72-5.12a1.083,1.083,0,0,0-.37-.345,1.334,1.334,0,0,0-.6-.105Zm0-1.41h2.03a4.942,4.942,0,0,0,1.5-.2,3.042,3.042,0,0,0,1.08-.58,2.406,2.406,0,0,0,.655-.9,2.923,2.923,0,0,0,.22-1.15,2.284,2.284,0,0,0-.845-1.93,4.084,4.084,0,0,0-2.515-.65h-2.12Zm22.58-6.94v1.58h-6.88v4.76h5.57v1.52h-5.57v4.89h6.88V0h-8.83V-14.33ZM248.19,0h-1.5a.645.645,0,0,1-.42-.13.8.8,0,0,1-.24-.33l-1.34-3.46h-6.43L236.92-.46a.781.781,0,0,1-.24.32.639.639,0,0,1-.42.14h-1.5l5.73-14.33h1.97ZM238.8-5.32h5.35l-2.25-5.83a10.9,10.9,0,0,1-.43-1.35q-.11.41-.215.755t-.205.6Zm22.64-9.01v1.63h-4.63V0h-1.94V-12.7h-4.65v-1.63Zm13.87,0v1.58h-6.88v4.76H274v1.52h-5.57v4.89h6.88V0h-8.83V-14.33ZM299.75,0h-1.5a.645.645,0,0,1-.42-.13.8.8,0,0,1-.24-.33l-1.34-3.46h-6.43L288.48-.46a.781.781,0,0,1-.24.32.639.639,0,0,1-.42.14h-1.5l5.73-14.33h1.97Zm-9.39-5.32h5.35l-2.25-5.83a10.893,10.893,0,0,1-.43-1.35q-.11.41-.215.755t-.2.6Zm15.2-9.01a.87.87,0,0,1,.385.065,1,1,0,0,1,.285.265l8.3,10.8q-.03-.26-.04-.505t-.01-.475V-14.33h1.7V0h-.98a.834.834,0,0,1-.385-.08.972.972,0,0,1-.3-.27l-8.29-10.79q.02.25.03.49t.01.44V0h-1.7V-14.33ZM335.1-7.16a8.07,8.07,0,0,1-.51,2.93,6.5,6.5,0,0,1-1.44,2.26,6.42,6.42,0,0,1-2.23,1.455A7.756,7.756,0,0,1,328.04,0h-5.36V-14.33h5.36a7.756,7.756,0,0,1,2.88.515,6.385,6.385,0,0,1,2.23,1.46,6.55,6.55,0,0,1,1.44,2.265A8.07,8.07,0,0,1,335.1-7.16Zm-1.99,0a7.192,7.192,0,0,0-.36-2.36,4.974,4.974,0,0,0-1.02-1.76,4.35,4.35,0,0,0-1.6-1.1,5.53,5.53,0,0,0-2.09-.38h-3.41V-1.57h3.41a5.53,5.53,0,0,0,2.09-.38,4.379,4.379,0,0,0,1.6-1.1A4.922,4.922,0,0,0,332.75-4.8,7.192,7.192,0,0,0,333.11-7.16ZM347.6,0V-14.33h4.57a8.737,8.737,0,0,1,2.275.26,4.406,4.406,0,0,1,1.57.74,2.919,2.919,0,0,1,.91,1.175,3.969,3.969,0,0,1,.3,1.565,3.174,3.174,0,0,1-.165,1.02,2.973,2.973,0,0,1-.5.91,3.536,3.536,0,0,1-.84.75,4.679,4.679,0,0,1-1.185.54,4.419,4.419,0,0,1,2.37,1.13,2.961,2.961,0,0,1,.8,2.16,4.025,4.025,0,0,1-.335,1.66,3.556,3.556,0,0,1-.98,1.29A4.572,4.572,0,0,1,354.8-.3a7.093,7.093,0,0,1-2.135.3Zm1.94-6.53v4.99h3.1a4.713,4.713,0,0,0,1.425-.19,2.657,2.657,0,0,0,.98-.535,2.074,2.074,0,0,0,.565-.82,2.927,2.927,0,0,0,.18-1.045A2.151,2.151,0,0,0,355-5.885a3.685,3.685,0,0,0-2.375-.645Zm0-1.38h2.56a4.97,4.97,0,0,0,1.42-.18,2.874,2.874,0,0,0,.995-.5,1.955,1.955,0,0,0,.585-.775,2.556,2.556,0,0,0,.19-.995,2.2,2.2,0,0,0-.76-1.85,3.84,3.84,0,0,0-2.36-.59h-2.63Zm19.57,6.37a4,4,0,0,0,1.59-.3,3.335,3.335,0,0,0,1.185-.84,3.674,3.674,0,0,0,.74-1.29,5.1,5.1,0,0,0,.255-1.65v-8.71h1.93v8.71a6.536,6.536,0,0,1-.4,2.3,5.344,5.344,0,0,1-1.13,1.835,5.167,5.167,0,0,1-1.8,1.215,6.155,6.155,0,0,1-2.38.44,6.155,6.155,0,0,1-2.38-.44,5.219,5.219,0,0,1-1.8-1.215,5.305,5.305,0,0,1-1.135-1.835,6.536,6.536,0,0,1-.395-2.3v-8.71h1.93v8.7a5.1,5.1,0,0,0,.255,1.65,3.674,3.674,0,0,0,.74,1.29,3.378,3.378,0,0,0,1.19.845A3.98,3.98,0,0,0,369.11-1.54ZM383.44,0H381.5V-14.33h1.94Zm8.78-1.63h6.2V0h-8.14V-14.33h1.94Zm23.76-5.53a8.07,8.07,0,0,1-.51,2.93,6.5,6.5,0,0,1-1.44,2.26A6.42,6.42,0,0,1,411.8-.515,7.756,7.756,0,0,1,408.92,0h-5.36V-14.33h5.36a7.756,7.756,0,0,1,2.88.515,6.385,6.385,0,0,1,2.23,1.46,6.55,6.55,0,0,1,1.44,2.265A8.07,8.07,0,0,1,415.98-7.16Zm-1.99,0a7.192,7.192,0,0,0-.36-2.36,4.974,4.974,0,0,0-1.02-1.76,4.35,4.35,0,0,0-1.6-1.1,5.53,5.53,0,0,0-2.09-.38h-3.41V-1.57h3.41a5.53,5.53,0,0,0,2.09-.38,4.379,4.379,0,0,0,1.6-1.1A4.922,4.922,0,0,0,413.63-4.8,7.192,7.192,0,0,0,413.99-7.16ZM440.27,0h-1.5a.645.645,0,0,1-.42-.13.8.8,0,0,1-.24-.33l-1.34-3.46h-6.43L429-.46a.781.781,0,0,1-.24.32.639.639,0,0,1-.42.14h-1.5l5.73-14.33h1.97Zm-9.39-5.32h5.35l-2.25-5.83a10.893,10.893,0,0,1-.43-1.35q-.11.41-.215.755t-.2.6ZM451.94,0V-14.33h4.57a8.737,8.737,0,0,1,2.275.26,4.406,4.406,0,0,1,1.57.74,2.919,2.919,0,0,1,.91,1.175,3.97,3.97,0,0,1,.295,1.565,3.175,3.175,0,0,1-.165,1.02,2.973,2.973,0,0,1-.5.91,3.536,3.536,0,0,1-.84.75,4.679,4.679,0,0,1-1.185.54,4.419,4.419,0,0,1,2.37,1.13,2.961,2.961,0,0,1,.8,2.16,4.025,4.025,0,0,1-.335,1.66,3.556,3.556,0,0,1-.98,1.29,4.572,4.572,0,0,1-1.58.835,7.093,7.093,0,0,1-2.135.3Zm1.94-6.53v4.99h3.1a4.713,4.713,0,0,0,1.425-.19,2.657,2.657,0,0,0,.98-.535,2.074,2.074,0,0,0,.565-.82,2.927,2.927,0,0,0,.18-1.045,2.151,2.151,0,0,0-.785-1.755,3.685,3.685,0,0,0-2.375-.645Zm0-1.38h2.56a4.97,4.97,0,0,0,1.42-.18,2.874,2.874,0,0,0,.995-.5,1.955,1.955,0,0,0,.585-.775,2.556,2.556,0,0,0,.19-.995,2.2,2.2,0,0,0-.76-1.85,3.84,3.84,0,0,0-2.36-.59h-2.63Zm22.83-6.42v1.58h-6.88v4.76h5.57v1.52h-5.57v4.89h6.88V0h-8.83V-14.33Zm15.55,0v1.63h-4.63V0h-1.94V-12.7h-4.65v-1.63Zm14.8,0v1.63h-4.63V0h-1.94V-12.7h-4.65v-1.63Zm13.87,0v1.58h-6.88v4.76h5.57v1.52h-5.57v4.89h6.88V0H512.1V-14.33Zm7.92,8.35V0h-1.93V-14.33h4.05a8.85,8.85,0,0,1,2.35.275,4.485,4.485,0,0,1,1.635.795,3.183,3.183,0,0,1,.955,1.255,4.194,4.194,0,0,1,.31,1.645,4.124,4.124,0,0,1-.24,1.42,3.75,3.75,0,0,1-.7,1.185,4.159,4.159,0,0,1-1.11.895,5.5,5.5,0,0,1-1.485.56,2.048,2.048,0,0,1,.64.61L537.51,0h-1.72a.848.848,0,0,1-.78-.41l-3.72-5.12a1.083,1.083,0,0,0-.37-.345,1.334,1.334,0,0,0-.6-.105Zm0-1.41h2.03a4.942,4.942,0,0,0,1.495-.2,3.042,3.042,0,0,0,1.08-.58,2.406,2.406,0,0,0,.655-.9,2.923,2.923,0,0,0,.22-1.15,2.284,2.284,0,0,0-.845-1.93,4.084,4.084,0,0,0-2.515-.65h-2.12Zm19.01-6.94h1.61a.687.687,0,0,1,.43.13.637.637,0,0,1,.23.33l2.96,9.96q.08.27.145.58t.125.65q.07-.34.14-.655a5.225,5.225,0,0,1,.16-.575l3.37-9.96a.732.732,0,0,1,.235-.315.644.644,0,0,1,.425-.145h.56a.666.666,0,0,1,.425.13.711.711,0,0,1,.235.33l3.35,9.96a9.755,9.755,0,0,1,.32,1.19q.06-.33.11-.63a4.327,4.327,0,0,1,.13-.56l2.97-9.96a.625.625,0,0,1,.225-.32.659.659,0,0,1,.425-.14h1.51L563.48,0h-1.74l-3.63-10.93a6.042,6.042,0,0,1-.2-.72q-.05.2-.1.385t-.095.335L554.07,0h-1.74Zm38.29,7.17a8.271,8.271,0,0,1-.51,2.955A6.766,6.766,0,0,1,584.2-1.89a6.436,6.436,0,0,1-2.235,1.505A7.537,7.537,0,0,1,579.08.15a7.5,7.5,0,0,1-2.88-.535,6.447,6.447,0,0,1-2.23-1.505A6.768,6.768,0,0,1,572.53-4.2a8.271,8.271,0,0,1-.51-2.955,8.271,8.271,0,0,1,.51-2.955,6.822,6.822,0,0,1,1.44-2.32,6.471,6.471,0,0,1,2.23-1.515,7.439,7.439,0,0,1,2.88-.54,7.475,7.475,0,0,1,2.885.54,6.46,6.46,0,0,1,2.235,1.515,6.82,6.82,0,0,1,1.44,2.32A8.271,8.271,0,0,1,586.15-7.16Zm-1.99,0a7.283,7.283,0,0,0-.36-2.37,5.013,5.013,0,0,0-1.02-1.775,4.426,4.426,0,0,0-1.6-1.115,5.432,5.432,0,0,0-2.1-.39,5.4,5.4,0,0,0-2.09.39,4.474,4.474,0,0,0-1.605,1.115A4.972,4.972,0,0,0,574.36-9.53,7.283,7.283,0,0,0,574-7.16a7.238,7.238,0,0,0,.36,2.365,4.979,4.979,0,0,0,1.025,1.77,4.421,4.421,0,0,0,1.605,1.11,5.466,5.466,0,0,0,2.09.385,5.494,5.494,0,0,0,2.1-.385,4.374,4.374,0,0,0,1.6-1.11A5.019,5.019,0,0,0,583.8-4.8,7.238,7.238,0,0,0,584.16-7.16Zm9.77,1.18V0H592V-14.33h4.05a8.85,8.85,0,0,1,2.35.275,4.485,4.485,0,0,1,1.635.795,3.183,3.183,0,0,1,.955,1.255,4.194,4.194,0,0,1,.31,1.645,4.124,4.124,0,0,1-.24,1.42,3.75,3.75,0,0,1-.7,1.185,4.159,4.159,0,0,1-1.11.895,5.5,5.5,0,0,1-1.485.56,2.048,2.048,0,0,1,.64.61L602.59,0h-1.72a.848.848,0,0,1-.78-.41l-3.72-5.12a1.083,1.083,0,0,0-.37-.345,1.334,1.334,0,0,0-.6-.105Zm0-1.41h2.03a4.942,4.942,0,0,0,1.495-.2,3.042,3.042,0,0,0,1.08-.58,2.406,2.406,0,0,0,.655-.9,2.923,2.923,0,0,0,.22-1.15,2.284,2.284,0,0,0-.845-1.93,4.084,4.084,0,0,0-2.515-.65h-2.12Zm15.69,5.76h6.2V0h-8.14V-14.33h1.94Zm23.76-5.53a8.07,8.07,0,0,1-.51,2.93,6.5,6.5,0,0,1-1.44,2.26A6.42,6.42,0,0,1,629.2-.515,7.756,7.756,0,0,1,626.32,0h-5.36V-14.33h5.36a7.756,7.756,0,0,1,2.88.515,6.385,6.385,0,0,1,2.23,1.46,6.551,6.551,0,0,1,1.44,2.265A8.07,8.07,0,0,1,633.38-7.16Zm-1.99,0a7.193,7.193,0,0,0-.36-2.36,4.974,4.974,0,0,0-1.02-1.76,4.35,4.35,0,0,0-1.6-1.1,5.53,5.53,0,0,0-2.09-.38h-3.41V-1.57h3.41a5.53,5.53,0,0,0,2.09-.38,4.379,4.379,0,0,0,1.6-1.1A4.922,4.922,0,0,0,631.03-4.8,7.193,7.193,0,0,0,631.39-7.16ZM637.6-1.1a1.271,1.271,0,0,1,.095-.49,1.257,1.257,0,0,1,.26-.4,1.224,1.224,0,0,1,.4-.27,1.215,1.215,0,0,1,.49-.1,1.215,1.215,0,0,1,.49.1,1.282,1.282,0,0,1,.4.27,1.215,1.215,0,0,1,.265.4,1.271,1.271,0,0,1,.095.49,1.261,1.261,0,0,1-.095.5,1.229,1.229,0,0,1-.265.4,1.215,1.215,0,0,1-.4.265,1.271,1.271,0,0,1-.49.1,1.271,1.271,0,0,1-.49-.1,1.161,1.161,0,0,1-.4-.265,1.272,1.272,0,0,1-.26-.4A1.261,1.261,0,0,1,637.6-1.1Z" transform="translate(639.72 914.49)" fill="#999"/>
  </g>
</svg>
