<svg id="Group_4780" data-name="Group 4780" xmlns="http://www.w3.org/2000/svg" xmlns:xlink="http://www.w3.org/1999/xlink" width="96.158" height="122.382" viewBox="0 0 96.158 122.382">
  <defs>
    <clipPath id="clip-path">
      <rect id="Rectangle_972" data-name="Rectangle 972" width="96.158" height="122.382" fill="none"/>
    </clipPath>
  </defs>
  <g id="Group_4779" data-name="Group 4779" clip-path="url(#clip-path)">
    <path id="Path_27407" data-name="Path 27407" d="M48.079,0c-16.847,0-30.6,15.4-30.6,34.267v9.791H8.742C3.912,44.058,0,48.439,0,53.848v58.743c0,5.409,3.912,9.791,8.742,9.791H87.416c4.83,0,8.742-4.381,8.742-9.791V53.848c0-5.409-3.912-9.791-8.742-9.791H78.674V34.267C78.674,16.016,65.722,1.315,49.63.354A3.977,3.977,0,0,0,48.079,0m0,9.791c12.123,0,21.854,10.9,21.854,24.478v9.79H26.222V34.267c0-13.577,9.733-24.477,21.856-24.477"/>
    <path id="Path_27408" data-name="Path 27408" d="M86.233,157.795a11.485,11.485,0,0,0-.777-1.382c-.5-.869-1.065-1.874-1.569-2.75-.415-.721-.8-1.648-1.833-1.663-1.072-.015-1.429.932-1.818,1.616-1.235,2.171-3.76,6.541-3.76,6.541H77.64s2.409-4.262,3.6-6.414c.154-.276.456-.637.808-.637.534,0,.8.635,1.041,1.072.642,1.169,1.262,2.288,1.864,3.418.189.355.574.821.311,1.3-.172.315-.518.3-1.01.3,0,.008-4.754,0-4.754,0v.96h4.319a10.148,10.148,0,0,0,1.429-.047,1.44,1.44,0,0,0,1.15-1.334V158.6a2.732,2.732,0,0,0-.17-.809" transform="translate(-37.232 -74)" fill="#fff"/>
    <path id="Path_27409" data-name="Path 27409" d="M37.15,152.487h5.111l-5.192,7.251a.353.353,0,0,0-.069.205v.213h6v-.49H37.785l5.18-7.236a.411.411,0,0,0,.081-.237v-.2h-5.9Z" transform="translate(-18.013 -73.996)" fill="#fff"/>
    <rect id="Rectangle_971" data-name="Rectangle 971" width="0.594" height="8.163" transform="translate(27.028 78)" fill="#fff"/>
    <path id="Path_27410" data-name="Path 27410" d="M66.466,152.017a.206.206,0,0,0-.092.092l-3.207,5.67a1.5,1.5,0,0,0-.084.17c-.025.06-.051.12-.072.182a2.371,2.371,0,0,0-.15-.346l-3.294-5.677a.206.206,0,0,0-.1-.092.4.4,0,0,0-.13-.017h-.4v8.163h.513v-6.957a3.229,3.229,0,0,0-.017-.323l3.3,5.711a.261.261,0,0,0,.231.15h.092a.252.252,0,0,0,.231-.15l3.213-5.705a3.118,3.118,0,0,0-.017.317v6.957H67V152h-.411a.372.372,0,0,0-.128.017" transform="translate(-28.694 -74)" fill="#fff"/>
    <path id="Path_27411" data-name="Path 27411" d="M101.57,152a.369.369,0,0,0-.127.017.206.206,0,0,0-.092.092l-3.207,5.67a1.584,1.584,0,0,0-.084.17c-.025.06-.049.121-.072.182a2.37,2.37,0,0,0-.15-.346l-3.294-5.677a.349.349,0,0,0-.036-.046v.987l3.2,5.542a.26.26,0,0,0,.231.15h.092a.252.252,0,0,0,.231-.15l3.213-5.705a3.118,3.118,0,0,0-.017.317v6.957h.519V152Z" transform="translate(-46.01 -74)" fill="#fff"/>
    <path id="Path_27412" data-name="Path 27412" d="M117.812,152v.491h-4.3v3.3h3.577v.479h-3.577v3.4h4.3v.49H112.92V152Z" transform="translate(-54.974 -74)" fill="#fff"/>
    <path id="Path_27413" data-name="Path 27413" d="M131.269,152v.491h-4.3v3.3h3.577v.479h-3.577v3.4h4.3v.49h-4.892V152Z" transform="translate(-61.525 -74)" fill="#fff"/>
    <path id="Path_27414" data-name="Path 27414" d="M145.939,152v.5h-2.867v7.661h-.589V152.5H139.6V152Z" transform="translate(-67.962 -74)" fill="#fff"/>
  </g>
</svg>
