<svg xmlns="http://www.w3.org/2000/svg" width="305.973" height="15" viewBox="0 0 305.973 15">
  <g id="Group_4790" data-name="Group 4790" transform="translate(-410 -1000)">
    <path id="Path_27216" data-name="Path 27216" d="M69.893-30.72a4,4,0,0,0-3.75,4.2v1.2H65.071A1.141,1.141,0,0,0,64-24.12v7.2a1.141,1.141,0,0,0,1.071,1.2h9.643a1.141,1.141,0,0,0,1.071-1.2v-7.2a1.141,1.141,0,0,0-1.071-1.2H73.643v-1.2a4,4,0,0,0-3.56-4.157A.487.487,0,0,0,69.893-30.72Zm0,1.2a2.844,2.844,0,0,1,2.679,3v1.2H67.214v-1.2A2.844,2.844,0,0,1,69.893-29.52Z" transform="translate(346 1030.72)"/>
    <path id="Path_27451" data-name="Path 27451" d="M-85.047-8.55v1.422h-6.192v4.284h5.013v1.368h-5.013v4.4h6.192V4.347h-7.947V-8.55Zm6.111,0a.783.783,0,0,1,.347.059.9.9,0,0,1,.257.238l7.47,9.72q-.027-.234-.036-.454t-.009-.428V-8.55h1.53v12.9h-.882a.75.75,0,0,1-.347-.072.875.875,0,0,1-.274-.243l-7.461-9.711q.018.225.027.441t.009.4V4.347h-1.53V-8.55ZM-52.35-2.1A7.262,7.262,0,0,1-52.809.54a5.848,5.848,0,0,1-1.3,2.034,5.778,5.778,0,0,1-2.007,1.31,6.98,6.98,0,0,1-2.592.464h-4.824V-8.55H-58.7a6.98,6.98,0,0,1,2.592.464,5.747,5.747,0,0,1,2.007,1.314,5.9,5.9,0,0,1,1.3,2.039A7.262,7.262,0,0,1-52.35-2.1Zm-1.791,0a6.473,6.473,0,0,0-.324-2.124,4.476,4.476,0,0,0-.918-1.584,3.915,3.915,0,0,0-1.44-.99A4.977,4.977,0,0,0-58.7-7.137h-3.069V2.934H-58.7a4.977,4.977,0,0,0,1.881-.342,3.941,3.941,0,0,0,1.44-.986A4.43,4.43,0,0,0-54.465.027,6.473,6.473,0,0,0-54.141-2.1Zm6.2.369h4.446V-.369H-47.94ZM-31.164-8.55v1.467h-4.167V4.347h-1.746V-7.083h-4.185V-8.55ZM-15.531-2.1A7.444,7.444,0,0,1-15.99.563a6.09,6.09,0,0,1-1.3,2.083A5.792,5.792,0,0,1-19.3,4a6.783,6.783,0,0,1-2.6.482A6.749,6.749,0,0,1-24.486,4a5.8,5.8,0,0,1-2.007-1.355,6.09,6.09,0,0,1-1.3-2.083A7.444,7.444,0,0,1-28.248-2.1a7.444,7.444,0,0,1,.459-2.66,6.139,6.139,0,0,1,1.3-2.088,5.824,5.824,0,0,1,2.007-1.364,6.694,6.694,0,0,1,2.592-.486,6.728,6.728,0,0,1,2.6.486,5.814,5.814,0,0,1,2.011,1.364,6.139,6.139,0,0,1,1.3,2.088A7.445,7.445,0,0,1-15.531-2.1Zm-1.791,0a6.554,6.554,0,0,0-.324-2.133,4.512,4.512,0,0,0-.918-1.6,3.984,3.984,0,0,0-1.44-1,4.888,4.888,0,0,0-1.89-.351,4.864,4.864,0,0,0-1.881.351,4.027,4.027,0,0,0-1.445,1,4.475,4.475,0,0,0-.922,1.6A6.554,6.554,0,0,0-26.466-2.1,6.514,6.514,0,0,0-26.142.031a4.481,4.481,0,0,0,.922,1.593,3.979,3.979,0,0,0,1.445,1,4.919,4.919,0,0,0,1.881.346A4.944,4.944,0,0,0-20,2.623a3.937,3.937,0,0,0,1.44-1A4.517,4.517,0,0,0-17.646.031,6.514,6.514,0,0,0-17.322-2.1Zm6.21.369h4.446V-.369h-4.446ZM6.447-8.55v1.422H.255v4.284H5.268v1.368H.255v4.4H6.447V4.347H-1.5V-8.55Zm6.111,0a.783.783,0,0,1,.346.059.9.9,0,0,1,.257.238l7.47,9.72q-.027-.234-.036-.454T20.586.585V-8.55h1.53v12.9h-.882a.75.75,0,0,1-.347-.072.875.875,0,0,1-.274-.243L13.152-5.679q.018.225.027.441t.009.4V4.347h-1.53V-8.55ZM39.144-2.1A7.262,7.262,0,0,1,38.685.54a5.848,5.848,0,0,1-1.3,2.034,5.778,5.778,0,0,1-2.007,1.31,6.98,6.98,0,0,1-2.592.464H27.966V-8.55H32.79a6.98,6.98,0,0,1,2.592.464,5.746,5.746,0,0,1,2.007,1.314,5.9,5.9,0,0,1,1.3,2.039A7.262,7.262,0,0,1,39.144-2.1Zm-1.791,0a6.473,6.473,0,0,0-.324-2.124,4.477,4.477,0,0,0-.918-1.584,3.915,3.915,0,0,0-1.44-.99,4.977,4.977,0,0,0-1.881-.342H29.721V2.934H32.79a4.977,4.977,0,0,0,1.881-.342,3.941,3.941,0,0,0,1.44-.986A4.43,4.43,0,0,0,37.029.027,6.473,6.473,0,0,0,37.353-2.1ZM58.341-8.55v1.422H52.149v4.284h5.013v1.368H52.149v4.4h6.192V4.347H50.394V-8.55Zm6.111,0a.783.783,0,0,1,.347.059.9.9,0,0,1,.257.238l7.47,9.72q-.027-.234-.036-.454T72.48.585V-8.55h1.53v12.9h-.882a.75.75,0,0,1-.347-.072.875.875,0,0,1-.275-.243L65.046-5.679q.018.225.027.441t.009.4V4.347h-1.53V-8.55ZM88.95,1.683a.361.361,0,0,1,.261.117l.684.747a5.517,5.517,0,0,1-1.922,1.431,6.552,6.552,0,0,1-2.722.513,6.409,6.409,0,0,1-2.529-.481,5.543,5.543,0,0,1-1.935-1.35A6.1,6.1,0,0,1,79.545.576,7.783,7.783,0,0,1,79.1-2.1a7.316,7.316,0,0,1,.473-2.673A6.108,6.108,0,0,1,80.9-6.858a5.94,5.94,0,0,1,2.047-1.354,6.97,6.97,0,0,1,2.633-.482,6.208,6.208,0,0,1,2.452.441,6.2,6.2,0,0,1,1.831,1.2l-.567.8a.618.618,0,0,1-.144.148.4.4,0,0,1-.234.059.456.456,0,0,1-.247-.085q-.131-.086-.311-.212t-.423-.27a3.706,3.706,0,0,0-.576-.27,4.759,4.759,0,0,0-.774-.212,5.388,5.388,0,0,0-1.017-.085,4.91,4.91,0,0,0-1.895.355A4.242,4.242,0,0,0,82.2-5.814a4.607,4.607,0,0,0-.967,1.6A6.109,6.109,0,0,0,80.886-2.1,6.222,6.222,0,0,0,81.233.054a4.749,4.749,0,0,0,.945,1.6,3.984,3.984,0,0,0,1.417.995,4.531,4.531,0,0,0,1.764.342,7.163,7.163,0,0,0,1.035-.067,4.25,4.25,0,0,0,.851-.212,3.6,3.6,0,0,0,.729-.365,5.7,5.7,0,0,0,.68-.527A.457.457,0,0,1,88.95,1.683Zm7.857-2.718V4.347H95.07V-8.55h3.645a7.964,7.964,0,0,1,2.115.248,4.037,4.037,0,0,1,1.472.716,2.865,2.865,0,0,1,.859,1.13,3.775,3.775,0,0,1,.279,1.48,3.711,3.711,0,0,1-.216,1.278,3.375,3.375,0,0,1-.625,1.066,3.743,3.743,0,0,1-1,.806,4.945,4.945,0,0,1-1.337.5,1.844,1.844,0,0,1,.576.549L104.6,4.347h-1.548a.763.763,0,0,1-.7-.369L99-.63a.975.975,0,0,0-.333-.31,1.2,1.2,0,0,0-.54-.095Zm0-1.269h1.827a4.448,4.448,0,0,0,1.346-.185,2.738,2.738,0,0,0,.972-.522,2.165,2.165,0,0,0,.59-.806,2.63,2.63,0,0,0,.2-1.035,2.056,2.056,0,0,0-.761-1.737,3.676,3.676,0,0,0-2.264-.585H96.807ZM114.15-.783v5.13h-1.737V-.783L107.688-8.55h1.53a.544.544,0,0,1,.369.117,1.118,1.118,0,0,1,.234.288l2.952,5.013a6.177,6.177,0,0,1,.3.594q.122.279.221.549.1-.279.216-.558a4.9,4.9,0,0,1,.3-.585l2.943-5.013a1.151,1.151,0,0,1,.221-.274.512.512,0,0,1,.364-.131h1.548Zm10.971.306V4.347h-1.737V-8.55h3.807a7.144,7.144,0,0,1,2.129.284,4.089,4.089,0,0,1,1.5.806A3.246,3.246,0,0,1,131.7-6.2,4.436,4.436,0,0,1,132-4.554a4.2,4.2,0,0,1-.315,1.647,3.544,3.544,0,0,1-.923,1.287,4.285,4.285,0,0,1-1.508.841,6.479,6.479,0,0,1-2.061.3Zm0-1.386h2.07a4.022,4.022,0,0,0,1.319-.2,2.7,2.7,0,0,0,.958-.553,2.3,2.3,0,0,0,.585-.85,2.907,2.907,0,0,0,.2-1.089,2.474,2.474,0,0,0-.76-1.926,3.319,3.319,0,0,0-2.3-.693h-2.07ZM145.686-8.55v1.467h-4.167V4.347h-1.746V-7.083h-4.185V-8.55Zm6.606,12.9h-1.746V-8.55h1.746ZM170.427-2.1a7.444,7.444,0,0,1-.459,2.659,6.091,6.091,0,0,1-1.3,2.083A5.792,5.792,0,0,1,166.661,4a6.783,6.783,0,0,1-2.6.482A6.749,6.749,0,0,1,161.472,4a5.8,5.8,0,0,1-2.007-1.355,6.09,6.09,0,0,1-1.3-2.083A7.444,7.444,0,0,1,157.71-2.1a7.444,7.444,0,0,1,.459-2.66,6.138,6.138,0,0,1,1.3-2.088,5.824,5.824,0,0,1,2.007-1.364,6.694,6.694,0,0,1,2.592-.486,6.728,6.728,0,0,1,2.6.486,5.814,5.814,0,0,1,2.012,1.364,6.139,6.139,0,0,1,1.3,2.088A7.444,7.444,0,0,1,170.427-2.1Zm-1.791,0a6.554,6.554,0,0,0-.324-2.133,4.511,4.511,0,0,0-.918-1.6,3.983,3.983,0,0,0-1.44-1,4.889,4.889,0,0,0-1.89-.351,4.864,4.864,0,0,0-1.881.351,4.026,4.026,0,0,0-1.444,1,4.475,4.475,0,0,0-.923,1.6,6.555,6.555,0,0,0-.324,2.133,6.514,6.514,0,0,0,.324,2.128,4.48,4.48,0,0,0,.923,1.593,3.979,3.979,0,0,0,1.444,1,4.92,4.92,0,0,0,1.881.346,4.944,4.944,0,0,0,1.89-.346,3.936,3.936,0,0,0,1.44-1,4.517,4.517,0,0,0,.918-1.593A6.514,6.514,0,0,0,168.636-2.1Zm7.776-6.453a.783.783,0,0,1,.347.059.9.9,0,0,1,.256.238l7.47,9.72q-.027-.234-.036-.454T184.44.585V-8.55h1.53v12.9h-.882a.75.75,0,0,1-.347-.072.875.875,0,0,1-.274-.243l-7.461-9.711q.018.225.027.441t.009.4V4.347h-1.53V-8.55Z" transform="translate(530.003 1010.194)"/>
  </g>
</svg>
