<svg xmlns="http://www.w3.org/2000/svg" xmlns:xlink="http://www.w3.org/1999/xlink" width="1013.313" height="451.382" viewBox="0 0 1013.313 451.382">
  <defs>
    <clipPath id="clip-path">
      <rect id="Rectangle_979" data-name="Rectangle 979" width="1013.313" height="451.382" fill="none"/>
    </clipPath>
  </defs>
  <g id="Group_4789" data-name="Group 4789" transform="translate(0 0)">
    <g id="Group_4788" data-name="Group 4788" transform="translate(0 0)" clip-path="url(#clip-path)">
      <path id="Path_27437" data-name="Path 27437" d="M561.2,141.629l74.089-54.12A124.845,124.845,0,0,0,515.742,0H71.5A22.678,22.678,0,0,0,48.711,22.513V264.448c.03.084.078.15.108.239q.655-1.75,1.37-3.458a29.029,29.029,0,0,1,1.591-3.236l60.988-107.834a3.949,3.949,0,0,1,1.759-1.753,7.034,7.034,0,0,1,2.411-.329h7.789V303.3h-9.871V171a58.256,58.256,0,0,1,.329-6.03l-61.1,108.492a4.8,4.8,0,0,1-4.391,2.853h-.981v50.962c.275,68.914,56.561,124.375,125.2,124.1H618.15a22.675,22.675,0,0,0,22.792-22.517v-60.24L561.2,310.487ZM331.313,276.891c-1.843,12.909-8.889,22.971-21.865,25.406-7.843,1.478-27.177.885-27.177.885H200.137V284.871s90.4.15,90.408,0c9.35,0,15.93.365,19.2-5.617,5.007-9.171-2.3-18.06-5.91-24.814-11.462-21.482-23.235-42.76-35.45-65-4.564-8.3-9.643-20.387-19.795-20.387-6.694,0-12.455,6.873-15.362,12.114-22.744,40.966-68.543,122.012-68.543,122.012H142.529s48.007-83.086,71.5-124.375c7.394-13.005,14.178-31.011,34.565-30.724,19.6.269,26.967,17.893,34.858,31.61,9.589,16.66,20.309,35.761,29.839,52.29,5.139,8.913,11.187,17.33,14.776,26.3a52.1,52.1,0,0,1,3.248,15.362Z" transform="translate(242.685 0.007)"/>
      <path id="Path_27438" data-name="Path 27438" d="M308.541,9.46,205.774,84.536l-69.65,50.878V294.15L211.086,348.8l97.455,71.05c12.389,9.29,26.585,12.389,26.585-13.167V22.621c0-22.451-11.617-25.55-26.585-13.161" transform="translate(678.188 11.252)"/>
      <path id="Path_27439" data-name="Path 27439" d="M235.154,108.662c-9.53-16.535-20.25-35.636-29.839-52.29-7.9-13.717-15.254-31.34-34.864-31.616-20.381-.281-27.165,17.719-34.565,30.724C112.395,96.77,64.394,179.861,64.394,179.861H86.552s45.8-81.052,68.537-122.012c2.907-5.24,8.674-12.114,15.362-12.114,10.158,0,15.236,12.084,19.795,20.381,12.221,22.242,23.994,43.52,35.456,65,3.6,6.76,10.917,15.649,5.9,24.82-3.266,5.982-9.853,5.617-19.2,5.617-.012.15-90.4,0-90.4,0v18.311h82.129s19.34.586,27.183-.885c12.969-2.435,20.022-12.5,21.865-25.406v-3.248a51.945,51.945,0,0,0-3.254-15.368c-3.583-8.961-9.631-17.378-14.77-26.291" transform="translate(320.819 123.327)" fill="#fff"/>
      <path id="Path_27440" data-name="Path 27440" d="M2.853,34.079h97.192L1.316,171.973A6.739,6.739,0,0,0,0,175.921v4.056H114.091v-9.326H14.919L113.427,33.092a7.76,7.76,0,0,0,1.537-4.5V24.753H2.853Z" transform="translate(0 123.325)"/>
      <rect id="Rectangle_978" data-name="Rectangle 978" width="11.3" height="155.224" transform="translate(152.915 148.082)"/>
      <path id="Path_27441" data-name="Path 27441" d="M110.374,134.782,47.735,26.835a3.906,3.906,0,0,0-1.807-1.753,7.563,7.563,0,0,0-2.471-.329H35.783V179.977H45.54V47.677a60.7,60.7,0,0,0-.323-6.138l62.747,108.6a4.938,4.938,0,0,0,4.385,2.853h.778V141.123a45.036,45.036,0,0,0-2.752-6.341" transform="translate(178.276 123.325)"/>
      <path id="Path_27442" data-name="Path 27442" d="M54.083,150.139l61.1-108.492a58.255,58.255,0,0,0-.329,6.03v132.3h9.871V24.753h-7.783a7.048,7.048,0,0,0-2.417.329,3.981,3.981,0,0,0-1.759,1.753L51.78,134.669a29.029,29.029,0,0,0-1.591,3.236q-.718,1.7-1.37,3.458c-.03-.09-.078-.156-.108-.239v11.869h.981a4.789,4.789,0,0,0,4.391-2.853" transform="translate(242.685 123.325)" fill="#fff"/>
      <path id="Path_27443" data-name="Path 27443" d="M163.467,94.792v-.724a11.437,11.437,0,0,0-.724-3.4,48.517,48.517,0,0,0-3.278-5.839c-2.112-3.667-4.493-7.908-6.622-11.605-1.747-3.045-3.386-6.957-7.735-7.017-4.522-.06-6.03,3.936-7.669,6.82-5.216,9.165-15.871,27.6-15.871,27.6h4.917S136.655,82.642,141.7,73.55c.646-1.161,1.926-2.686,3.41-2.686,2.255,0,3.38,2.68,4.391,4.522,2.716,4.935,5.33,9.655,7.872,14.423.8,1.5,2.423,3.47,1.31,5.51-.724,1.328-2.19,1.244-4.265,1.244,0,.036-20.058,0-20.058,0v4.062h18.228a43.246,43.246,0,0,0,6.03-.191c2.877-.544,4.445-2.776,4.852-5.641" transform="translate(605.668 329.834)" fill="#fff"/>
      <path id="Path_27444" data-name="Path 27444" d="M127.338,72.063v.724a11.516,11.516,0,0,0,.724,3.41,48.907,48.907,0,0,0,3.278,5.833c2.112,3.667,4.493,7.908,6.622,11.605,1.747,3.045,3.386,6.957,7.735,7.017,4.522.06,6.03-3.936,7.669-6.82,5.216-9.165,15.871-27.6,15.871-27.6H164.32s-10.17,17.982-15.213,27.075c-.646,1.161-1.926,2.686-3.41,2.686-2.255,0-3.38-2.68-4.391-4.522-2.716-4.935-5.33-9.655-7.873-14.423-.8-1.5-2.423-3.47-1.31-5.51.724-1.328,2.189-1.244,4.265-1.244,0-.036,20.058,0,20.058,0V66.23H138.22a43.241,43.241,0,0,0-6.03.191c-2.877.544-4.445,2.776-4.852,5.641" transform="translate(634.415 329.837)" fill="#fff"/>
      <path id="Path_27445" data-name="Path 27445" d="M173.343,94.792v-.724a11.435,11.435,0,0,0-.724-3.4,48.508,48.508,0,0,0-3.278-5.839c-2.112-3.667-4.493-7.908-6.622-11.605-1.747-3.045-3.386-6.957-7.735-7.017-4.522-.06-6.03,3.936-7.669,6.82-5.216,9.165-15.871,27.6-15.871,27.6h4.917s10.17-17.982,15.213-27.075c.646-1.161,1.926-2.686,3.41-2.686,2.255,0,3.38,2.68,4.391,4.522,2.716,4.935,5.33,9.655,7.872,14.423.8,1.5,2.423,3.47,1.31,5.51-.724,1.328-2.189,1.244-4.265,1.244,0,.036-20.058,0-20.058,0v4.062h18.228a43.246,43.246,0,0,0,6.03-.191c2.877-.544,4.445-2.776,4.852-5.641" transform="translate(654.871 329.834)" fill="#fff"/>
      <path id="Path_27446" data-name="Path 27446" d="M137.214,72.063v.724a11.516,11.516,0,0,0,.724,3.41,48.9,48.9,0,0,0,3.278,5.833c2.112,3.667,4.493,7.908,6.622,11.605,1.747,3.045,3.386,6.957,7.735,7.017,4.522.06,6.03-3.936,7.669-6.82,5.216-9.165,15.871-27.6,15.871-27.6H174.2s-10.17,17.982-15.213,27.075c-.646,1.161-1.926,2.686-3.41,2.686-2.255,0-3.38-2.68-4.391-4.522-2.716-4.935-5.33-9.655-7.872-14.423-.8-1.5-2.423-3.47-1.31-5.51.724-1.328,2.189-1.244,4.265-1.244,0-.036,20.058,0,20.058,0V66.23H148.1a43.243,43.243,0,0,0-6.03.191c-2.877.544-4.445,2.776-4.851,5.641" transform="translate(683.618 329.837)" fill="#fff"/>
      <path id="Path_27447" data-name="Path 27447" d="M84.011,95.352c.132-.365.275-.724.425-1.077a8.357,8.357,0,0,1,.5-1.011l19.083-33.745a1.254,1.254,0,0,1,.55-.55,2.17,2.17,0,0,1,.766-.108h2.429v48.575h-3.093v-41.4a17.572,17.572,0,0,1,.108-1.884L85.656,98.1A1.511,1.511,0,0,1,84.28,99h-.55a1.547,1.547,0,0,1-1.37-.891L62.72,64.113a17.956,17.956,0,0,1,.108,1.92v41.4H59.765V58.861h2.411a2.276,2.276,0,0,1,.772.108,1.187,1.187,0,0,1,.562.55l19.6,33.775a14.931,14.931,0,0,1,.9,2.058" transform="translate(297.757 293.256)" fill="#fff"/>
      <path id="Path_27448" data-name="Path 27448" d="M101.6,58.861v2.919H76.029V81.414H97.314v2.853H76.029v20.25H101.6v2.919H72.494V58.861Z" transform="translate(361.175 293.258)" fill="#fff"/>
      <path id="Path_27449" data-name="Path 27449" d="M110.681,58.861v2.919H85.107V81.414h21.284v2.853H85.107v20.25h25.574v2.919H81.572V58.861Z" transform="translate(406.402 293.258)" fill="#fff"/>
      <path id="Path_27450" data-name="Path 27450" d="M127.369,58.861v2.991H110.314v45.584h-3.505V61.852H89.646V58.861Z" transform="translate(446.629 293.258)" fill="#fff"/>
    </g>
  </g>
</svg>
