<svg xmlns="http://www.w3.org/2000/svg" xmlns:xlink="http://www.w3.org/1999/xlink" width="430" height="191.544" viewBox="0 0 430 191.544">
  <defs>
    <clipPath id="clip-path">
      <rect id="Rectangle_981" data-name="Rectangle 981" width="430" height="191.544" fill="none"/>
    </clipPath>
  </defs>
  <g id="Group_4795" data-name="Group 4795" transform="translate(0 0)">
    <g id="Group_4794" data-name="Group 4794" transform="translate(0 0)" clip-path="url(#clip-path)">
      <path id="Path_27455" data-name="Path 27455" d="M209.289,5.314,165.68,37.173l-29.556,21.59v67.36l31.81,23.192,41.355,30.15c5.257,3.942,11.281,5.257,11.281-5.587V10.9c0-9.53-4.93-10.845-11.281-5.587" transform="translate(209.43 3.475)"/>
      <path id="Path_27456" data-name="Path 27456" d="M1.211,28.711H42.454L.558,87.226A2.86,2.86,0,0,0,0,88.9v1.721H48.415V86.665H6.331l41.8-58.373a3.293,3.293,0,0,0,.652-1.909v-1.63H1.211Z" transform="translate(0 38.084)"/>
      <rect id="Rectangle_980" data-name="Rectangle 980" width="4.795" height="65.87" transform="translate(64.89 62.839)"/>
      <path id="Path_27457" data-name="Path 27457" d="M67.436,71.444,40.855,25.636a1.658,1.658,0,0,0-.767-.744,3.209,3.209,0,0,0-1.048-.14H35.783v65.87h4.14V34.481a25.755,25.755,0,0,0-.137-2.6L66.413,77.96a2.1,2.1,0,0,0,1.861,1.211h.33V74.135a19.109,19.109,0,0,0-1.168-2.691" transform="translate(55.053 38.084)"/>
      <path id="Path_27458" data-name="Path 27458" d="M266.186,60.1l31.44-22.969A52.978,52.978,0,0,0,246.9,0H58.383a9.622,9.622,0,0,0-9.672,9.552V112.219c.013.036.033.063.046.1q.278-.743.581-1.465a12.1,12.1,0,0,1,.675-1.373l25.88-45.759a1.676,1.676,0,0,1,.746-.744,2.985,2.985,0,0,1,1.023-.14h3.305v65.87H76.779V72.565a24.719,24.719,0,0,1,.14-2.559L50.991,116.045a2.032,2.032,0,0,1-1.863,1.208h-.416v21.628a52.931,52.931,0,0,0,53.129,52.662H290.353a9.624,9.624,0,0,0,9.672-9.555V156.422l-33.838-24.667ZM97.138,170.034h-1.31V152.465a7.5,7.5,0,0,1,.043-.8l-8.113,14.409a.641.641,0,0,1-.584.381h-.231a.66.66,0,0,1-.584-.381L78.026,151.65a7.588,7.588,0,0,1,.046.815v17.569h-1.3V149.421h1.02a.976.976,0,0,1,.327.046.523.523,0,0,1,.241.231l8.316,14.335a5.805,5.805,0,0,1,.378.873c.058-.155.119-.31.183-.459a4.491,4.491,0,0,1,.211-.429l8.1-14.32a.522.522,0,0,1,.231-.231.915.915,0,0,1,.322-.046h1.033Zm24.3-19.377H110.585v8.334h9.032V160.2h-9.032V168.8h10.852v1.239H109.082V149.421h12.355Zm23.045,0H133.63v8.334h9.03V160.2h-9.03V168.8h10.852v1.239H132.129V149.421h12.352Zm24.151.033h-7.24v19.344h-1.485V150.69h-7.283v-1.269h16.008Zm0-33.191c-.782,5.478-3.772,9.748-9.278,10.781-3.328.624-11.533.376-11.533.376H112.969v-7.77s38.36.063,38.365,0c3.968,0,6.76.155,8.149-2.384,2.125-3.892-.977-7.664-2.508-10.53-4.864-9.116-9.86-18.145-15.043-27.581-1.937-3.523-4.092-8.651-8.4-8.651-2.841,0-5.285,2.917-6.519,5.141-9.651,17.381-29.086,51.776-29.086,51.776h-9.4s20.372-35.257,30.34-52.778c3.138-5.519,6.016-13.16,14.668-13.04,8.319.117,11.444,7.6,14.792,13.416,4.069,7.07,8.618,15.175,12.662,22.189,2.181,3.782,4.747,7.354,6.27,11.159a22.091,22.091,0,0,1,1.378,6.519Zm82.807,62.691a2.579,2.579,0,0,1-2.061,2.391,18.063,18.063,0,0,1-2.559.084h-7.735v-1.724s8.514.013,8.514,0c.881,0,1.5.033,1.807-.531.472-.863-.216-1.7-.556-2.335-1.079-2.023-2.188-4.029-3.338-6.123-.429-.782-.909-1.919-1.863-1.919-.632,0-1.173.647-1.447,1.142-2.143,3.856-6.455,11.489-6.455,11.489H233.66s4.521-7.824,6.732-11.713c.7-1.226,1.335-2.919,3.257-2.894,1.846.025,2.539,1.686,3.282,2.978.9,1.569,1.911,3.366,2.81,4.925a20.91,20.91,0,0,1,1.391,2.475,4.935,4.935,0,0,1,.307,1.447Zm4.658,2.485c-1.846-.025-2.541-1.686-3.282-2.975-.9-1.569-1.914-3.369-2.81-4.925a20.579,20.579,0,0,1-1.391-2.478,4.851,4.851,0,0,1-.307-1.447v-.3a2.579,2.579,0,0,1,2.059-2.394,18.067,18.067,0,0,1,2.559-.084h7.735V169.8s-8.512-.015-8.512,0c-.881,0-1.5-.036-1.81.528-.472.863.218,1.7.556,2.338,1.081,2.021,2.188,4.026,3.341,6.12.429.782.906,1.919,1.863,1.919.63,0,1.173-.647,1.447-1.14,2.14-3.859,6.456-11.492,6.456-11.492h2.087s-4.521,7.826-6.735,11.713c-.7,1.226-1.335,2.922-3.254,2.894m17.28-12.129a2.582,2.582,0,0,1,2.059-2.394,18.1,18.1,0,0,1,2.561-.084h7.735V169.8s-8.514-.015-8.514,0c-.881,0-1.5-.036-1.81.528-.47.863.218,1.7.558,2.338,1.079,2.021,2.188,4.026,3.338,6.12.429.782.909,1.919,1.863,1.919.63,0,1.173-.647,1.447-1.14,2.143-3.859,6.455-11.492,6.455-11.492h2.087s-4.521,7.826-6.732,11.713c-.7,1.226-1.338,2.922-3.257,2.894-1.846-.025-2.539-1.686-3.282-2.975-.9-1.569-1.914-3.369-2.81-4.925a20.574,20.574,0,0,1-1.391-2.478,4.85,4.85,0,0,1-.307-1.447Zm-4.658-2.488c1.846.025,2.539,1.686,3.282,2.978.9,1.569,1.914,3.366,2.81,4.925a20.558,20.558,0,0,1,1.391,2.475,4.853,4.853,0,0,1,.307,1.447v.307a2.579,2.579,0,0,1-2.059,2.391,18.1,18.1,0,0,1-2.561.084h-7.732v-1.724s8.512.013,8.512,0c.881,0,1.5.033,1.81-.531.472-.863-.218-1.7-.556-2.335-1.081-2.023-2.188-4.029-3.341-6.123-.429-.782-.906-1.919-1.863-1.919-.63,0-1.173.647-1.447,1.142-2.143,3.856-6.455,11.489-6.455,11.489H258.73s4.521-7.824,6.735-11.713c.7-1.226,1.335-2.919,3.254-2.894" transform="translate(74.943 0.002)"/>
    </g>
  </g>
</svg>
