<svg xmlns="http://www.w3.org/2000/svg" width="175.157" height="89.386" viewBox="0 0 175.157 89.386">
  <g id="Group_4760" data-name="Group 4760" transform="translate(-56.826 -98.403)">
    <g id="Group_4758" data-name="Group 4758" transform="translate(56.826 98.403)">
      <path id="Path_27382" data-name="Path 27382" d="M227.4,132.031c-1.094-2.734-2.941-5.3-4.508-8.023-2.908-5.045-6.18-10.874-9.106-15.957-2.41-4.187-4.655-9.564-10.638-9.647-6.221-.086-8.29,5.408-10.548,9.376-7.169,12.6-21.818,37.955-21.818,37.955h6.761S191.527,121,198.466,108.5c.887-1.6,2.646-3.7,4.688-3.7,3.1,0,4.648,3.688,6.04,6.221,3.728,6.785,7.32,13.279,10.818,19.833,1.1,2.062,3.332,4.775,1.8,7.573-1,1.826-3.007,1.714-5.86,1.714,0,.046-27.587,0-27.587,0v5.589h25.063a59.086,59.086,0,0,0,8.293-.27c3.959-.744,6.109-3.814,6.672-7.754v-.992A15.868,15.868,0,0,0,227.4,132.031Z" transform="translate(-53.239 -98.403)"/>
      <path id="Path_27383" data-name="Path 27383" d="M57.7,101.249H87.356L57.228,143.327a2.053,2.053,0,0,0-.4,1.2v1.239H91.64v-2.846H61.379l30.06-41.977a2.364,2.364,0,0,0,.468-1.372V98.4H57.7Z" transform="translate(-56.826 -98.403)"/>
      <rect id="Rectangle_968" data-name="Rectangle 968" width="3.448" height="47.367" transform="translate(46.663 0)"/>
      <path id="Path_27384" data-name="Path 27384" d="M163.837,98.5a1.21,1.21,0,0,0-.536.535L144.69,131.945a8.7,8.7,0,0,0-.486.988c-.145.346-.285.7-.419,1.054a13.6,13.6,0,0,0-.871-2.008L123.8,99.039a1.184,1.184,0,0,0-.553-.535,2.315,2.315,0,0,0-.753-.1h-2.344V145.77h2.979V105.4a18.186,18.186,0,0,0-.1-1.874l19.148,33.14a1.507,1.507,0,0,0,1.338.87h.536a1.461,1.461,0,0,0,1.339-.87l18.646-33.107a17.927,17.927,0,0,0-.1,1.841V145.77h3.013V98.4h-2.377A2.162,2.162,0,0,0,163.837,98.5Z" transform="translate(-54.833 -98.403)"/>
    </g>
    <g id="Group_4759" data-name="Group 4759" transform="translate(56.826 164.36)">
      <path id="Path_27385" data-name="Path 27385" d="M74.863,181.663a.378.378,0,0,1,.276.112l.647.7a10.642,10.642,0,0,1-1.554,1.368,9.69,9.69,0,0,1-1.837,1.037,10.788,10.788,0,0,1-2.186.663,13.523,13.523,0,0,1-2.615.235,11.127,11.127,0,0,1-4.364-.834,9.691,9.691,0,0,1-3.4-2.362,10.88,10.88,0,0,1-2.209-3.7,13.968,13.968,0,0,1-.794-4.825,13.317,13.317,0,0,1,.818-4.762,10.822,10.822,0,0,1,2.3-3.7,10.261,10.261,0,0,1,3.546-2.4,11.867,11.867,0,0,1,4.558-.85,12.874,12.874,0,0,1,2.283.187,10.448,10.448,0,0,1,1.935.533,9.126,9.126,0,0,1,1.693.867,12.942,12.942,0,0,1,1.553,1.2l-.5.728a.45.45,0,0,1-.4.195.7.7,0,0,1-.372-.17c-.152-.113-.342-.254-.575-.421s-.513-.351-.842-.551a6.906,6.906,0,0,0-1.174-.55,9.906,9.906,0,0,0-1.571-.422,10.942,10.942,0,0,0-2.024-.17,9.979,9.979,0,0,0-3.838.722,8.6,8.6,0,0,0-3.011,2.055,9.362,9.362,0,0,0-1.967,3.238,12.211,12.211,0,0,0-.706,4.268,12.617,12.617,0,0,0,.7,4.338,9.349,9.349,0,0,0,1.927,3.231,8.371,8.371,0,0,0,2.906,2.024,9.3,9.3,0,0,0,3.636.7,13.282,13.282,0,0,0,2.193-.163,8.506,8.506,0,0,0,1.773-.485,7.979,7.979,0,0,0,1.506-.793,11.592,11.592,0,0,0,1.377-1.1,1.086,1.086,0,0,1,.153-.106A.352.352,0,0,1,74.863,181.663Z" transform="translate(-56.826 -162.347)"/>
      <path id="Path_27386" data-name="Path 27386" d="M103.882,185.509H102.6a.558.558,0,0,1-.372-.122.791.791,0,0,1-.227-.315l-2.7-6.655H88.046l-2.688,6.655a.688.688,0,0,1-.227.306.6.6,0,0,1-.388.13H83.481L92.855,162.6h1.651Zm-15.334-8.323H98.814l-4.68-11.576c-.075-.184-.152-.391-.227-.623s-.151-.478-.226-.736c-.075.259-.152.5-.227.736s-.152.446-.227.64Z" transform="translate(-55.987 -162.339)"/>
      <path id="Path_27387" data-name="Path 27387" d="M115.176,175.147v10.362h-1.651V162.6h5.845q3.965,0,5.926,1.531a5.354,5.354,0,0,1,1.959,4.493,6.175,6.175,0,0,1-.453,2.4,5.617,5.617,0,0,1-1.3,1.9,6.972,6.972,0,0,1-2.049,1.345,9.126,9.126,0,0,1-2.7.688,2.605,2.605,0,0,1,.7.648l7.886,9.908h-1.442a.946.946,0,0,1-.445-.1,1.142,1.142,0,0,1-.364-.324l-7.336-9.293a1.623,1.623,0,0,0-.59-.5,2.5,2.5,0,0,0-.98-.144Zm0-1.231h3.983a9.455,9.455,0,0,0,2.729-.364,5.9,5.9,0,0,0,2.039-1.045,4.5,4.5,0,0,0,1.271-1.636,5.1,5.1,0,0,0,.438-2.153,4.211,4.211,0,0,0-1.6-3.627,7.779,7.779,0,0,0-4.662-1.182h-4.194Z" transform="translate(-55.041 -162.339)"/>
      <path id="Path_27388" data-name="Path 27388" d="M152.873,162.6v1.377H140.811v9.261h10.038v1.344H140.811v9.554h12.062v1.376h-13.73V162.6Z" transform="translate(-54.235 -162.339)"/>
      <path id="Path_27389" data-name="Path 27389" d="M177.706,162.6v1.377H165.644v9.261h10.038v1.344H165.644v9.554h12.062v1.376h-13.73V162.6Z" transform="translate(-53.453 -162.339)"/>
      <path id="Path_27390" data-name="Path 27390" d="M190.931,175.147v10.362H189.28V162.6h5.845q3.967,0,5.926,1.531a5.355,5.355,0,0,1,1.96,4.493,6.138,6.138,0,0,1-.454,2.4,5.629,5.629,0,0,1-1.3,1.9,6.99,6.99,0,0,1-2.05,1.345,9.127,9.127,0,0,1-2.7.688,2.586,2.586,0,0,1,.7.648l7.885,9.908h-1.439a.944.944,0,0,1-.446-.1,1.145,1.145,0,0,1-.365-.324l-7.335-9.293a1.631,1.631,0,0,0-.59-.5,2.507,2.507,0,0,0-.981-.144Zm0-1.231h3.984a9.443,9.443,0,0,0,2.728-.364,5.918,5.918,0,0,0,2.04-1.045,4.528,4.528,0,0,0,1.272-1.636,5.135,5.135,0,0,0,.436-2.153,4.212,4.212,0,0,0-1.6-3.627,7.788,7.788,0,0,0-4.664-1.182h-4.194Z" transform="translate(-52.657 -162.339)"/>
      <path id="Path_27391" data-name="Path 27391" d="M226.049,165.391a.457.457,0,0,1-.422.275.929.929,0,0,1-.544-.3,7.016,7.016,0,0,0-2.322-1.336,7.183,7.183,0,0,0-4.305.048,4.621,4.621,0,0,0-1.592.972,4.125,4.125,0,0,0-.975,1.426,4.408,4.408,0,0,0-.332,1.7,3.474,3.474,0,0,0,.493,1.926,4.44,4.44,0,0,0,1.306,1.295,8.412,8.412,0,0,0,1.84.9q1.03.364,2.116.72t2.117.786a7.616,7.616,0,0,1,1.84,1.077,4.955,4.955,0,0,1,1.306,1.595,5.06,5.06,0,0,1,.493,2.355,7.425,7.425,0,0,1-.493,2.713,6.322,6.322,0,0,1-1.433,2.21,6.736,6.736,0,0,1-2.3,1.482,8.354,8.354,0,0,1-3.109.542,8.76,8.76,0,0,1-3.9-.8,9.184,9.184,0,0,1-2.867-2.194l.453-.712a.569.569,0,0,1,.455-.242.643.643,0,0,1,.372.194c.152.13.335.288.551.478s.477.393.779.614a6.425,6.425,0,0,0,1.054.617,7.458,7.458,0,0,0,1.378.477,7.3,7.3,0,0,0,1.768.195,6.719,6.719,0,0,0,2.432-.413,5.318,5.318,0,0,0,1.807-1.125,4.775,4.775,0,0,0,1.127-1.693,5.637,5.637,0,0,0,.389-2.1,3.708,3.708,0,0,0-.494-2,4.282,4.282,0,0,0-1.306-1.312,8.5,8.5,0,0,0-1.84-.882q-1.03-.357-2.116-.7t-2.118-.761a7.282,7.282,0,0,1-1.84-1.077,4.9,4.9,0,0,1-1.3-1.636,5.406,5.406,0,0,1-.5-2.453,5.792,5.792,0,0,1,.438-2.218,5.509,5.509,0,0,1,1.282-1.886,6.281,6.281,0,0,1,2.083-1.312,7.585,7.585,0,0,1,2.829-.494,8.573,8.573,0,0,1,3.2.566,7.676,7.676,0,0,1,2.586,1.734Z" transform="translate(-51.911 -162.347)"/>
    </g>
  </g>
</svg>
