<svg xmlns="http://www.w3.org/2000/svg" width="30" height="30" viewBox="0 0 30 30">
  <g id="Group_5511" data-name="Group 5511" transform="translate(-140.575 -31.906)">
    <path id="Path_27777" data-name="Path 27777" d="M201.854,34.42a7.473,7.473,0,0,0-5.591-2.513h-2.587v7.965Z" transform="translate(-33.188 0)" fill="#0d2764"/>
    <path id="Path_27778" data-name="Path 27778" d="M153.843,31.907h-2.587a7.472,7.472,0,0,0-5.592,2.514l8.179,5.452Z" transform="translate(-3.181 0)" fill="#0d2764"/>
    <path id="Path_27779" data-name="Path 27779" d="M217.331,56.648v-1.3l-1.946,1.3Z" transform="translate(-46.756 -14.652)" fill="#0d2764"/>
    <path id="Path_27780" data-name="Path 27780" d="M217.262,86.337V85.012h-1.988Z" transform="translate(-46.688 -33.191)" fill="#0d2764"/>
    <path id="Path_27781" data-name="Path 27781" d="M140.575,85.012v1.325l1.987-1.325Z" transform="translate(0 -33.191)" fill="#0d2764"/>
    <path id="Path_27782" data-name="Path 27782" d="M193.675,98.679h2.587a7.473,7.473,0,0,0,5.575-2.5l-8.163-5.44Z" transform="translate(-33.188 -36.773)" fill="#0d2764"/>
    <path id="Path_27783" data-name="Path 27783" d="M145.707,96.182a7.473,7.473,0,0,0,5.575,2.5h2.587V90.742Z" transform="translate(-3.208 -36.772)" fill="#0d2764"/>
    <path id="Path_27784" data-name="Path 27784" d="M140.575,55.351v1.3h1.946Z" transform="translate(0 -14.653)" fill="#0d2764"/>
    <path id="Path_27785" data-name="Path 27785" d="M152.708,31.907h-2.046v7.966l-8.179-5.452a7.477,7.477,0,0,0-1.56,2.725L148.215,42h-3.89l-3.75-2.495v1.2l1.946,1.3h-1.946v2.046h12.133Z" transform="translate(0 0)" fill="#fff"/>
    <path id="Path_27786" data-name="Path 27786" d="M188.215,91.681h2.047V83.744l8.163,5.44a7.48,7.48,0,0,0,1.595-2.8l-7.2-4.788h3.889l3.641,2.421v-1.1L198.362,81.6h1.988v-2.05H188.215Z" transform="translate(-29.775 -29.774)" fill="#fff"/>
    <path id="Path_27787" data-name="Path 27787" d="M190.262,42v-.98l8.78-5.838a7.546,7.546,0,0,0-.6-.757l-8.179,5.452V31.907h-2.047V44.042H200.35V42H198.4l1.946-1.3V39.407A7.487,7.487,0,0,0,200,37.13L192.683,42Z" transform="translate(-29.775 0)" fill="#fff"/>
    <path id="Path_27788" data-name="Path 27788" d="M140.575,79.545V81.6h1.987l-1.987,1.325v1.261a7.5,7.5,0,0,0,.331,2.2l7.2-4.79h2.553v.886l-8.822,5.868a7.509,7.509,0,0,0,.659.836l8.163-5.44v7.937h2.046V79.545Z" transform="translate(0 -29.774)" fill="#fff"/>
    <path id="Path_27789" data-name="Path 27789" d="M158.44,31.907h-5.732V44.042H140.575v5.729h12.133V61.906h5.732V49.771h12.135V44.042H158.44Z" transform="translate(0 0)" fill="#c20320"/>
    <path id="Path_27790" data-name="Path 27790" d="M200.5,85.012l7.2,4.788a7.492,7.492,0,0,0,.33-2.2v-.165l-3.64-2.421Z" transform="translate(-37.451 -33.191)" fill="#c20320"/>
    <path id="Path_27791" data-name="Path 27791" d="M193.675,46.466v.98h2.42l7.313-4.865a7.479,7.479,0,0,0-.954-1.953Z" transform="translate(-33.188 -5.451)" fill="#c20320"/>
    <path id="Path_27792" data-name="Path 27792" d="M151.214,85.012h-2.553l-7.2,4.79a7.46,7.46,0,0,0,.935,1.963l8.822-5.868Z" transform="translate(-0.551 -33.191)" fill="#c20320"/>
    <path id="Path_27793" data-name="Path 27793" d="M148.215,50.727l-7.291-4.85a7.5,7.5,0,0,0-.348,2.261v.094l3.75,2.495Z" transform="translate(0 -8.732)" fill="#c20320"/>
  </g>
</svg>
