<svg xmlns="http://www.w3.org/2000/svg" width="247.158" height="31.069" viewBox="0 0 247.158 31.069">
  <g id="Group_4741" data-name="Group 4741" transform="translate(-4.965 -62.582)">
    <g id="Group_4735" data-name="Group 4735" transform="translate(4.965 62.582)">
      <path id="Path_27349" data-name="Path 27349" d="M83.216,84.64a44.178,44.178,0,0,0-2.957-5.264c-1.907-3.308-4.052-7.131-5.973-10.466-1.579-2.745-3.053-6.273-6.978-6.327-4.079-.058-5.436,3.546-6.918,6.149-4.7,8.264-14.31,24.9-14.31,24.9h4.435S59.684,77.405,64.235,69.2c.581-1.048,1.735-2.423,3.073-2.423,2.033,0,3.049,2.417,3.962,4.079,2.445,4.452,4.8,8.71,7.1,13.01.722,1.352,2.187,3.132,1.183,4.966-.654,1.2-1.973,1.125-3.844,1.125,0,.03-18.094,0-18.094,0v3.666H74.05a38.788,38.788,0,0,0,5.44-.178c2.6-.488,4.007-2.5,4.377-5.086v-.651A10.409,10.409,0,0,0,83.216,84.64Z" transform="translate(31.02 -62.581)" fill="#040405"/>
      <path id="Path_27350" data-name="Path 27350" d="M5.537,64.45H24.99L5.229,92.047a1.346,1.346,0,0,0-.264.791v.812H27.8V91.785H7.952L27.668,64.251a1.556,1.556,0,0,0,.308-.9v-.769H5.537Z" transform="translate(-4.965 -62.582)" fill="#040405"/>
      <rect id="Rectangle_966" data-name="Rectangle 966" width="2.262" height="31.068" transform="translate(30.607 0.001)" fill="#040405"/>
      <path id="Path_27351" data-name="Path 27351" d="M56.465,62.648a.8.8,0,0,0-.351.353L43.907,84.582a5.95,5.95,0,0,0-.319.649c-.1.227-.188.458-.274.69a9.079,9.079,0,0,0-.572-1.316L30.207,63a.782.782,0,0,0-.364-.353,1.537,1.537,0,0,0-.493-.066H27.812V93.651h1.954V67.171a11.613,11.613,0,0,0-.066-1.228l12.56,21.736a.989.989,0,0,0,.878.572h.351a.962.962,0,0,0,.879-.572L56.6,65.963a12.029,12.029,0,0,0-.066,1.208v26.48h1.976V62.582H56.949A1.436,1.436,0,0,0,56.465,62.648Z" transform="translate(15.031 -62.582)" fill="#040405"/>
    </g>
    <g id="Group_4740" data-name="Group 4740" transform="translate(119.456 62.582)" opacity="0.3">
      <g id="Group_4736" data-name="Group 4736">
        <path id="Path_27352" data-name="Path 27352" d="M90.148,62.582v1.911H79.237V93.651H77V64.493H66.02V62.582Z" transform="translate(-66.02 -62.582)" fill="#161615"/>
      </g>
      <g id="Group_4737" data-name="Group 4737" transform="translate(34.648)">
        <path id="Path_27353" data-name="Path 27353" d="M103.116,62.582V64.45H86.76V77.008h13.612v1.823H86.76V91.785h16.356v1.866H84.5V62.582Z" transform="translate(-84.497 -62.582)" fill="#161615"/>
      </g>
      <g id="Group_4738" data-name="Group 4738" transform="translate(63.787)">
        <path id="Path_27354" data-name="Path 27354" d="M127.7,93.651h-1.733a.758.758,0,0,1-.506-.165,1.083,1.083,0,0,1-.308-.428l-3.666-9.025H106.228l-3.645,9.025a.942.942,0,0,1-.306.416.816.816,0,0,1-.527.176h-1.714l12.712-31.069h2.239ZM106.909,82.366h13.918l-6.344-15.7c-.1-.248-.2-.531-.308-.844s-.2-.649-.308-1c-.1.351-.2.684-.308,1s-.2.6-.306.866Z" transform="translate(-100.036 -62.582)" fill="#161615"/>
      </g>
      <g id="Group_4739" data-name="Group 4739" transform="translate(101.973)">
        <path id="Path_27355" data-name="Path 27355" d="M135.9,85.923c.088-.234.18-.465.274-.692a6.315,6.315,0,0,1,.319-.649L148.7,63a.8.8,0,0,1,.351-.351,1.391,1.391,0,0,1,.484-.068h1.558V93.651h-1.975V67.173a11.454,11.454,0,0,1,.066-1.208l-12.23,21.713a.959.959,0,0,1-.878.57h-.353a.987.987,0,0,1-.878-.57L122.287,65.942a12.177,12.177,0,0,1,.066,1.23V93.651H120.4V62.582h1.536a1.484,1.484,0,0,1,.5.068.773.773,0,0,1,.362.351l12.536,21.6A8.814,8.814,0,0,1,135.9,85.923Z" transform="translate(-120.399 -62.582)" fill="#161615"/>
      </g>
    </g>
  </g>
</svg>
