<svg xmlns="http://www.w3.org/2000/svg" width="548" height="112" viewBox="0 0 548 112">
  <g id="Group_4716" data-name="Group 4716" transform="translate(-92 -608)">
    <g id="Group_19" data-name="Group 19" transform="translate(268.585 491.636)">
      <path id="Path_1" data-name="Path 1" d="M81.694,132.961v-.419a6.488,6.488,0,0,0-.435-1.98,28.114,28.114,0,0,0-1.978-3.388c-1.276-2.13-2.712-4.591-4-6.738-1.057-1.768-2.043-4.038-4.668-4.073-2.73-.036-3.638,2.283-4.628,3.959-3.146,5.319-9.574,16.025-9.574,16.025h2.967s6.133-10.443,9.178-15.721a2.792,2.792,0,0,1,2.057-1.561c1.359,0,2.04,1.557,2.65,2.626,1.636,2.865,3.213,5.607,4.747,8.375.483.87,1.462,2.016.791,3.2-.437.771-1.319.723-2.571.723,0,.02-12.105,0-12.105,0v2.36h11a26.851,26.851,0,0,0,3.64-.114A3.574,3.574,0,0,0,81.694,132.961Z" transform="translate(0 0)"/>
      <path id="Path_2" data-name="Path 2" d="M99.743,119.767v.419a6.485,6.485,0,0,0,.435,1.979,28.119,28.119,0,0,0,1.978,3.388c1.276,2.13,2.711,4.591,4,6.738,1.057,1.767,2.043,4.038,4.668,4.073,2.73.037,3.638-2.283,4.628-3.959,3.146-5.32,9.574-16.025,9.574-16.025h-2.967s-6.133,10.443-9.178,15.721a2.791,2.791,0,0,1-2.057,1.561c-1.36,0-2.04-1.557-2.65-2.627-1.636-2.865-3.213-5.607-4.747-8.374-.483-.87-1.462-2.016-.791-3.2.437-.771,1.319-.724,2.571-.724,0-.019,12.105,0,12.105,0V116.38h-11a26.9,26.9,0,0,0-3.64.114A3.575,3.575,0,0,0,99.743,119.767Z" transform="translate(-22.501 0)"/>
      <path id="Path_3" data-name="Path 3" d="M155.855,132.961v-.419a6.487,6.487,0,0,0-.435-1.98,28.109,28.109,0,0,0-1.978-3.388c-1.276-2.13-2.711-4.591-4-6.738-1.057-1.768-2.043-4.038-4.668-4.073-2.73-.036-3.638,2.283-4.628,3.959-3.146,5.319-9.574,16.025-9.574,16.025h2.967s6.133-10.443,9.178-15.721a2.792,2.792,0,0,1,2.057-1.561c1.36,0,2.04,1.557,2.65,2.626,1.636,2.865,3.213,5.607,4.747,8.375.483.87,1.462,2.016.791,3.2-.437.771-1.319.723-2.571.723,0,.02-12.105,0-12.105,0v2.36h11a26.844,26.844,0,0,0,3.639-.114A3.574,3.574,0,0,0,155.855,132.961Z" transform="translate(-38.514 0)"/>
      <path id="Path_4" data-name="Path 4" d="M173.9,119.767v.419a6.484,6.484,0,0,0,.435,1.979,28.184,28.184,0,0,0,1.978,3.388c1.276,2.13,2.712,4.591,4,6.738,1.057,1.767,2.043,4.038,4.668,4.073,2.73.037,3.638-2.283,4.628-3.959,3.146-5.32,9.574-16.025,9.574-16.025h-2.967s-6.133,10.443-9.178,15.721a2.792,2.792,0,0,1-2.057,1.561c-1.359,0-2.04-1.557-2.65-2.627-1.636-2.865-3.212-5.607-4.747-8.374-.483-.87-1.462-2.016-.791-3.2.437-.771,1.319-.724,2.572-.724,0-.019,12.1,0,12.1,0V116.38h-11a26.9,26.9,0,0,0-3.64.114A3.575,3.575,0,0,0,173.9,119.767Z" transform="translate(-61.015 0)"/>
    </g>
    <text id="_71_-_75_SHELTON_STREET_COVENT_GARDEN_LONDON_WC2H_9JQ_ENGLAND_UNITED_KINGDOM" data-name="71 - 75   SHELTON STREET   COVENT GARDEN   LONDON   WC2H 9JQ   ENGLAND   UNITED KINGDOM" transform="translate(366 673)" font-size="10" font-family="Lato-Regular, Lato" letter-spacing="0.1em"><tspan x="-273.27" y="0" xml:space="preserve">71 - 75   SHELTON STREET   COVENT GARDEN   LONDON   WC2H 9JQ   ENGLAND   UNITED KINGDOM</tspan></text>
    <g id="Group_2863" data-name="Group 2863" transform="translate(127 -98)">
      <text id="REGISTERED_IN_ENGLAND_14383397" data-name="REGISTERED IN ENGLAND   14383397" transform="translate(239 816)" font-size="10" font-family="Lato-Regular, Lato" letter-spacing="0.1em"><tspan x="-102.435" y="0" xml:space="preserve">REGISTERED IN ENGLAND   14383397</tspan></text>
    </g>
    <g id="Group_4715" data-name="Group 4715" transform="translate(-22 1)">
      <g id="Group_4714" data-name="Group 4714" transform="translate(20 3)">
        <text id="HELLO_ZIMOGROUP.ORG" data-name="HELLO@ZIMOGROUP.ORG" transform="translate(442 692)" font-size="10" font-family="Lato-Regular, Lato" letter-spacing="0.1em"><tspan x="-70.966" y="0">HELLO</tspan><tspan y="0" font-size="11">@</tspan><tspan y="0">ZIMOGROUP.ORG</tspan></text>
        <g id="Group_2859" data-name="Group 2859" transform="translate(310.055 626.5)">
          <path id="Path_201" data-name="Path 201" d="M55.367,58.567a.258.258,0,0,0-.257-.257H45.352a.258.258,0,0,0-.257.257v.71l5.136,2.568,5.136-2.568Z" transform="translate(0 0)"/>
          <path id="Path_202" data-name="Path 202" d="M55.367,63.205l-5.136,2.568L45.1,63.205v4.819a.258.258,0,0,0,.257.257H55.11a.258.258,0,0,0,.257-.257Z" transform="translate(0 -2.78)"/>
        </g>
      </g>
      <g id="Group_4713" data-name="Group 4713" transform="translate(0 3)">
        <text id="ZIMOGROUP.ORG" transform="translate(304 692)" font-size="10" font-family="Lato-Regular, Lato" letter-spacing="0.1em"><tspan x="-47.78" y="0">ZIMOGROUP.ORG</tspan></text>
        <path id="Path_203" data-name="Path 203" d="M3334.767,790.491v-.02a3.577,3.577,0,0,0-.6-1.974l0,0-.106-.143a3.616,3.616,0,0,0-1.243-1.057l-.047-.024-.047-.023-.024-.011a3.55,3.55,0,0,0-.463-.18c-.067-.021-.134-.039-.2-.056-.052-.013-.1-.025-.157-.035h0a3.639,3.639,0,0,0-.693-.069h-.1a3.624,3.624,0,0,0-.613.068c-.054.011-.108.023-.161.036a3.581,3.581,0,0,0-1.465.752,3.614,3.614,0,0,0-.56.6l-.106.143,0,0a3.58,3.58,0,0,0-.6,1.974v.02a3.579,3.579,0,0,0,.6,1.989l0,0,.105.143.011.015.02.027.007.008.025.032,0,.006.027.034,0,0,.029.035,0,.006.028.034,0,.005.029.033,0,.005.029.033.005.006.03.032.006.006.03.032.006.006.03.031.006.006.031.03.006.006.031.03.007.006.031.029.007.006.031.028.008.006.031.028.007.006.031.026h0l.008.007.031.026.01.008.031.025.01.008.03.024.012.009.029.022.013.01.029.021.014.01.027.02.015.011.027.019.016.011.027.018.017.011.026.017.018.011.026.017.019.011.025.016.019.011.025.015.02.011.025.015.02.011.025.014.021.011.024.013.022.011.021.012h0l.01.005.012.006.012.006.011.006.013.006.011.005.013.006.01.005.014.006.01,0,.014.007.01,0,.014.007.009,0,.015.007.009,0,.015.007.009,0,.016.007.008,0,.016.007.008,0,.017.007.008,0,.016.007.008,0,.017.007.008,0,.017.007.008,0,.017.007.007,0,.018.007.007,0,.018.007.007,0,.019.007.006,0,.018.006.006,0,.019.006.006,0,.019.006.006,0,.019.006.005,0,.02.006.005,0,.02.006.005,0,.02.006h.005l.02.006h0l.021.006h0l.022.006h0l.022.006h0l.022.006h0l.023.006h.007l.02,0h0l.025.006h0l.026.006h0a3.624,3.624,0,0,0,1.574,0h0l.026-.006h0l.025-.006h0l.019,0h.007l.024-.006h0l.023-.006h0l.022-.006h0l.022-.006h0l.021-.006h0l.021-.006h0l.02-.006h0l.02-.006.005,0,.02-.006.006,0,.019-.006.006,0,.019-.006.006,0,.019-.006.006,0,.019-.006.006,0,.019-.007.006,0,.019-.007.006,0,.018-.007.007,0,.018-.007.007,0,.017-.007.008,0,.017-.007.007,0,.017-.007.007,0,.017-.007.008,0,.016-.007.008,0,.016-.007.008,0,.016-.007.009,0,.015-.007.008,0,.016-.007.008,0,.015-.007.009,0,.015-.007.009,0,.015-.007.009,0,.014-.007.009,0,.014-.007.01,0,.012-.006h0l.02-.011.024-.012.023-.013.021-.012.025-.014.021-.012.025-.015.019-.011.026-.016.019-.011.026-.016.018-.011.026-.017.017-.011.027-.018.016-.011.027-.018.016-.011.027-.019.015-.011.027-.02.015-.011.027-.021.014-.01.028-.021.013-.01.029-.022.012-.01.03-.024.01-.009.031-.026.009-.007h0l.03-.026.008-.007.031-.028.008-.006.031-.029.007-.006.031-.029.007-.006.031-.03.006-.006.031-.031.005-.006.032-.032,0,0,.031-.033,0,0,.031-.034,0,0,.031-.035,0,0,.031-.036,0,0,.031-.038v0l.031-.037,0,0,.031-.039h0l.028-.036,0,0,.021-.028.009-.013.106-.143,0,0a3.581,3.581,0,0,0,.6-1.989Zm-1.053,2.107-.025.03,0,.005-.026.03,0,.005-.026.029,0,0-.027.029,0,0-.027.029,0,0-.026.027,0,0-.027.027-.007.006-.026.025-.008.008-.025.024-.009.008-.025.023-.01.009-.024.022-.01.009-.025.021-.01.009-.021.018-.014.012-.019.016-.016.013-.018.015-.017.014-.018.014-.017.013-.02.015-.015.011-.022.016-.015.011-.022.016-.016.012-.017.012-.021.015-.013.009-.025.017-.012.008-.027.018-.011.007-.029.018-.01.006-.03.018-.01.006-.031.018-.009.005-.034.02-.006,0-.021.011h0l-.039.021-.008,0-.034.018-.009,0-.032.017-.009,0-.033.016-.01,0-.032.015-.01,0-.032.015-.01,0-.031.014-.011.005-.027.011-.017.007-.02.008-.019.008-.024.009-.016.006-.027.01-.016.006-.027.01-.016.006-.027.009-.017.006-.025.008-.019.006-.022.007-.022.007-.017,0-.028.008-.016,0-.028.008-.016,0-.03.008h-.005a2.081,2.081,0,0,0,.149-.177,3.677,3.677,0,0,0,.555-1.2,5.249,5.249,0,0,1,1.027.281Zm-3.389,1.083-.016,0-.028-.008-.016,0-.028-.008-.017-.005-.022-.007-.023-.007-.019-.006-.026-.009-.017-.006-.027-.009-.016-.005-.028-.01-.015-.005-.028-.011-.015-.006-.027-.011-.016-.006-.021-.008-.013-.005-.031-.013-.01,0-.033-.014-.01,0-.033-.015-.009,0-.033-.016-.009,0-.033-.016-.008,0-.034-.017-.008,0-.035-.018-.007,0-.062-.034,0,0-.038-.021-.007,0-.032-.019-.009-.005-.031-.019-.01-.006-.03-.019-.01-.006-.028-.018-.011-.007-.027-.018-.012-.008-.023-.016-.016-.011-.017-.012-.021-.015-.016-.012-.021-.016-.015-.011-.019-.014-.017-.013-.018-.014-.018-.014-.018-.014-.017-.014-.019-.016-.014-.012-.021-.018-.01-.009-.024-.021-.01-.009-.024-.022-.01-.009-.025-.023-.009-.008-.025-.024-.008-.008-.026-.025-.006-.006-.027-.027,0-.005-.026-.027,0,0-.027-.028,0,0-.027-.029,0-.005-.026-.029,0-.005-.026-.03,0-.005-.025-.03,0,0a5.246,5.246,0,0,1,1.027-.281,3.667,3.667,0,0,0,.555,1.2,1.994,1.994,0,0,0,.149.177h-.006Zm-1.69-5.3.026-.031,0,0,.026-.03,0,0,.027-.031,0,0,.029-.031h0l.03-.031h0l.03-.03,0,0,.029-.029,0,0,.029-.028,0,0,.028-.027,0,0,.029-.027,0,0,.03-.027,0,0,.031-.027,0,0,.066-.056,0,0,.032-.026,0,0,.031-.025,0,0,.031-.024,0,0,.031-.024,0,0,.032-.023,0,0,.033-.023,0,0,.035-.024h0l.036-.024h0l.035-.023,0,0,.034-.021,0,0,.034-.021,0,0,.034-.02.005,0,.034-.02,0,0,.035-.019,0,0,.036-.019h0l.077-.039h0l.037-.018,0,0,.036-.017,0,0,.036-.016.005,0,.036-.016.005,0,.036-.015,0,0,.037-.015h0l.039-.015h0l.04-.015h0l.039-.014h0l.038-.013,0,0,.038-.012.005,0,.038-.011.005,0,.038-.011h.006l.039-.011h0l.04-.01h0l.01,0a2.013,2.013,0,0,0-.151.179,3.661,3.661,0,0,0-.555,1.194,5.262,5.262,0,0,1-1.025-.28Zm3.36-1.088.04.01h0l.039.011h.006l.038.011.006,0,.038.011.006,0,.038.012,0,0,.038.013h0l.04.014h0l.041.015h0l.039.015h0l.038.015,0,0,.037.015.005,0,.036.016.005,0,.036.016,0,0,.036.017,0,0,.037.018h0l.077.039h0l.037.019,0,0,.035.019,0,0,.034.02,0,0,.034.02,0,0,.034.021,0,0,.034.021,0,0,.035.023h0l.036.024h0l.035.024,0,0,.033.023,0,0,.032.023,0,0,.032.024,0,0,.031.024,0,0,.031.025,0,0,.032.026,0,0,.066.056,0,0,.031.027,0,0,.03.027,0,0,.029.027,0,0,.029.027,0,0,.028.028,0,0,.029.029,0,0,.03.031h0l.029.031h0l.029.031,0,0,.027.031,0,0,.026.031,0,0,.026.031,0,0a5.263,5.263,0,0,1-1.025.28,3.661,3.661,0,0,0-.555-1.194,2.122,2.122,0,0,0-.151-.179l.01,0Zm.93,3.035c0-.24-.021-.477-.049-.708a6.611,6.611,0,0,0-.115-.672q.246-.044.472-.1a4.546,4.546,0,0,0,.663-.221,3.27,3.27,0,0,1,.575,1.7Zm-1.605-3.119a1.117,1.117,0,0,1,.58.436,3.332,3.332,0,0,1,.5,1.063l-.163.021a9.086,9.086,0,0,1-.913.058Zm-.293,0v1.578a9.1,9.1,0,0,1-.913-.058l-.163-.021a3.327,3.327,0,0,1,.5-1.063A1.118,1.118,0,0,1,3331.025,787.207Zm-.947,1.811a9.4,9.4,0,0,0,.947.061v1.247h-1.312a6.667,6.667,0,0,1,.161-1.334Zm.947,1.6V791.9a9.4,9.4,0,0,0-.948.061l-.2.026a6.744,6.744,0,0,1-.16-1.365Zm-.915,1.63a9.146,9.146,0,0,1,.915-.059v1.585a1.119,1.119,0,0,1-.581-.438,3.351,3.351,0,0,1-.5-1.068Zm1.208,1.526V792.19a9.151,9.151,0,0,1,.915.059l.164.021a3.346,3.346,0,0,1-.5,1.068A1.119,1.119,0,0,1,3331.318,793.775Zm.948-1.818a9.386,9.386,0,0,0-.948-.061v-1.278h1.313a6.727,6.727,0,0,1-.16,1.365Zm-.948-1.632v-1.247a9.392,9.392,0,0,0,.947-.061l.2-.026a6.664,6.664,0,0,1,.162,1.334Zm-2.207-1.483c.15.039.308.073.473.1a6.487,6.487,0,0,0-.115.672c-.027.231-.044.469-.049.708h-1.546a3.271,3.271,0,0,1,.575-1.7A4.571,4.571,0,0,0,3329.112,788.843Zm.308,1.776a7.218,7.218,0,0,0,.048.733,6.53,6.53,0,0,0,.115.678q-.247.044-.474.1a4.527,4.527,0,0,0-.663.221,3.267,3.267,0,0,1-.573-1.736Zm3.815,1.514q-.226-.058-.474-.1a6.6,6.6,0,0,0,.115-.678c.028-.239.044-.485.049-.733h1.546a3.268,3.268,0,0,1-.573,1.736A4.54,4.54,0,0,0,3333.235,792.133Z" transform="translate(-3084.577 -101.896)"/>
      </g>
    </g>
    <text id="ZIMO_GROUP_LIMITED" data-name="ZIMO GROUP LIMITED" transform="translate(366 651)" font-size="10" font-family="Lato-Regular, Lato" letter-spacing="0.1em"><tspan x="-61.005" y="0">ZIMO GROUP LIMITED</tspan></text>
  </g>
</svg>
