<svg xmlns="http://www.w3.org/2000/svg" xmlns:xlink="http://www.w3.org/1999/xlink" width="221.87" height="52.552" viewBox="0 0 221.87 52.552">
  <defs>
    <clipPath id="clip-path">
      <rect id="Rectangle_2673" data-name="Rectangle 2673" width="107.405" height="52.551"/>
    </clipPath>
  </defs>
  <g id="Group_6480" data-name="Group 6480" transform="translate(-636 -875)">
    <g id="Group_6476" data-name="Group 6476" transform="translate(748.46 875)">
      <g id="Group_3385" data-name="Group 3385" transform="translate(0 0)">
        <path id="Path_7808" data-name="Path 7808" d="M206.772,143.325v-.619a9.9,9.9,0,0,0-.619-2.928,42.042,42.042,0,0,0-2.816-5.012c-1.816-3.151-3.86-6.792-5.688-9.967-1.505-2.615-2.908-5.974-6.645-6.026-3.886-.054-5.178,3.377-6.589,5.856-4.478,7.87-13.628,23.708-13.628,23.708h4.223s8.731-15.449,13.065-23.257c.554-1,1.653-2.309,2.928-2.309,1.935,0,2.9,2.3,3.773,3.886,2.328,4.239,4.573,8.295,6.757,12.389.687,1.288,2.081,2.982,1.126,4.73-.623,1.14-1.878,1.071-3.66,1.071,0,.029-17.232,0-17.232,0v3.491h15.655a36.91,36.91,0,0,0,5.18-.169C205.078,147.7,206.421,145.786,206.772,143.325Z" transform="translate(-97.362 -118.772)"/>
        <g id="Group_3285" data-name="Group 3285" transform="translate(0)">
          <g id="Group_3282" data-name="Group 3282">
            <path id="Path_7809" data-name="Path 7809" d="M78.739,118.772v.732a1.476,1.476,0,0,1-.293.857L59.67,146.581h18.9v1.778H56.826v-.774a1.286,1.286,0,0,1,.251-.753L75.9,120.549H57.37v-1.777Z" transform="translate(-56.826 -118.772)"/>
          </g>
          <g id="Group_3283" data-name="Group 3283" transform="translate(29.148)">
            <path id="Path_7810" data-name="Path 7810" d="M104.219,148.359h-2.154V118.772h2.154Z" transform="translate(-102.065 -118.772)"/>
          </g>
          <g id="Group_3284" data-name="Group 3284" transform="translate(40.801)">
            <path id="Path_7811" data-name="Path 7811" d="M134.914,141c.084-.222.171-.443.262-.658a5.473,5.473,0,0,1,.3-.617L147.1,119.169a.759.759,0,0,1,.335-.334,1.351,1.351,0,0,1,.46-.063h1.484v29.587H147.5V123.142a11.2,11.2,0,0,1,.063-1.15l-11.647,20.68a.913.913,0,0,1-.836.543h-.335a.941.941,0,0,1-.836-.543l-11.961-20.7a11.362,11.362,0,0,1,.063,1.171v25.217h-1.861V118.772h1.464a1.446,1.446,0,0,1,.47.063.743.743,0,0,1,.345.334l11.939,20.575A8.529,8.529,0,0,1,134.914,141Z" transform="translate(-120.152 -118.772)"/>
          </g>
        </g>
      </g>
      <g id="Group_4567" data-name="Group 4567" transform="translate(0 42.669)">
        <path id="Path_27238" data-name="Path 27238" d="M73.9,183.609v.239a.48.48,0,0,1-.1.279l-6.128,8.557h6.169v.58h-7.1v-.253a.419.419,0,0,1,.082-.246l6.142-8.578H66.925v-.58Z" transform="translate(-66.748 -183.5)"/>
        <path id="Path_27239" data-name="Path 27239" d="M86.329,193.266h-.7v-9.657h.7Z" transform="translate(-73.357 -183.5)"/>
        <path id="Path_27240" data-name="Path 27240" d="M100.535,190.863c.027-.073.056-.144.085-.216a1.86,1.86,0,0,1,.1-.2l3.794-6.708a.248.248,0,0,1,.11-.109.424.424,0,0,1,.15-.021h.484v9.657h-.614v-8.23a3.658,3.658,0,0,1,.021-.376l-3.8,6.749a.3.3,0,0,1-.273.178h-.109a.307.307,0,0,1-.273-.178l-3.9-6.755a3.707,3.707,0,0,1,.021.382v8.23h-.608v-9.657h.478a.452.452,0,0,1,.153.021.237.237,0,0,1,.113.109l3.9,6.715A2.778,2.778,0,0,1,100.535,190.863Z" transform="translate(-76.89 -183.5)"/>
        <path id="Path_27241" data-name="Path 27241" d="M127.3,188.375a5.869,5.869,0,0,1-.334,2.03,4.5,4.5,0,0,1-.942,1.557,4.163,4.163,0,0,1-1.454,1,5.148,5.148,0,0,1-3.74,0,4.161,4.161,0,0,1-1.453-1,4.548,4.548,0,0,1-.946-1.557,6.258,6.258,0,0,1,0-4.054,4.546,4.546,0,0,1,.946-1.556,4.216,4.216,0,0,1,1.453-1,4.77,4.77,0,0,1,1.863-.355,4.852,4.852,0,0,1,1.876.351,4.151,4.151,0,0,1,1.454,1,4.528,4.528,0,0,1,.942,1.559A5.853,5.853,0,0,1,127.3,188.375Zm-.723,0a5.53,5.53,0,0,0-.279-1.815,3.916,3.916,0,0,0-.788-1.364,3.372,3.372,0,0,0-1.225-.857,4.12,4.12,0,0,0-1.59-.3,4.058,4.058,0,0,0-1.573.3,3.443,3.443,0,0,0-1.229.857,3.894,3.894,0,0,0-.8,1.364,5.969,5.969,0,0,0,0,3.634,3.9,3.9,0,0,0,.8,1.362,3.409,3.409,0,0,0,1.229.853,4.093,4.093,0,0,0,1.573.293,4.157,4.157,0,0,0,1.59-.293,3.339,3.339,0,0,0,1.225-.853,3.922,3.922,0,0,0,.788-1.362A5.52,5.52,0,0,0,126.575,188.375Z" transform="translate(-84.723 -183.441)"/>
        <path id="Path_27242" data-name="Path 27242" d="M152.039,192.749a7.554,7.554,0,0,0,.907-.051,4.925,4.925,0,0,0,.761-.154,4.7,4.7,0,0,0,.669-.25q.317-.146.638-.33v-2.6h-1.856a.177.177,0,0,1-.126-.048.143.143,0,0,1-.051-.109v-.382h2.669v3.432a6.312,6.312,0,0,1-.751.45,4.947,4.947,0,0,1-.833.331,6.336,6.336,0,0,1-.955.2,8.031,8.031,0,0,1-1.119.072,5.018,5.018,0,0,1-1.907-.352,4.225,4.225,0,0,1-1.481-1,4.489,4.489,0,0,1-.959-1.56,6.219,6.219,0,0,1,0-4.063,4.427,4.427,0,0,1,.969-1.556,4.286,4.286,0,0,1,1.525-1,5.476,5.476,0,0,1,2.01-.351,6.371,6.371,0,0,1,1.02.075,4.75,4.75,0,0,1,.87.221,4.107,4.107,0,0,1,.751.362,5.112,5.112,0,0,1,.669.5l-.185.3a.191.191,0,0,1-.17.1.255.255,0,0,1-.116-.027,1.443,1.443,0,0,1-.3-.191,3.163,3.163,0,0,0-.526-.314,4.362,4.362,0,0,0-.829-.294,4.894,4.894,0,0,0-1.208-.129,4.592,4.592,0,0,0-1.7.3,3.6,3.6,0,0,0-1.293.86,3.809,3.809,0,0,0-.825,1.365,5.318,5.318,0,0,0-.29,1.808,5.392,5.392,0,0,0,.294,1.836,3.931,3.931,0,0,0,.822,1.375,3.541,3.541,0,0,0,1.269.863A4.312,4.312,0,0,0,152.039,192.749Z" transform="translate(-94.949 -183.441)"/>
        <path id="Path_27243" data-name="Path 27243" d="M169.135,188.9v4.368h-.7v-9.657H170.9a4.016,4.016,0,0,1,2.5.645,2.256,2.256,0,0,1,.826,1.893,2.592,2.592,0,0,1-.191,1.01,2.377,2.377,0,0,1-.549.8,2.926,2.926,0,0,1-.864.566,3.816,3.816,0,0,1-1.139.29,1.108,1.108,0,0,1,.293.274l3.324,4.176h-.607a.4.4,0,0,1-.188-.042.48.48,0,0,1-.153-.136l-3.092-3.916a.685.685,0,0,0-.249-.212,1.044,1.044,0,0,0-.413-.062Zm0-.519h1.679a3.962,3.962,0,0,0,1.15-.153,2.479,2.479,0,0,0,.861-.44,1.911,1.911,0,0,0,.536-.689,2.169,2.169,0,0,0,.184-.908,1.776,1.776,0,0,0-.675-1.529,3.281,3.281,0,0,0-1.966-.5h-1.767Z" transform="translate(-102.348 -183.5)"/>
        <path id="Path_27244" data-name="Path 27244" d="M193.416,188.375a5.854,5.854,0,0,1-.335,2.03,4.491,4.491,0,0,1-.942,1.557,4.162,4.162,0,0,1-1.453,1,5.148,5.148,0,0,1-3.74,0,4.161,4.161,0,0,1-1.453-1,4.547,4.547,0,0,1-.946-1.557,6.246,6.246,0,0,1,0-4.054,4.546,4.546,0,0,1,.946-1.556,4.216,4.216,0,0,1,1.453-1,4.769,4.769,0,0,1,1.863-.355,4.853,4.853,0,0,1,1.877.351,4.15,4.15,0,0,1,1.453,1,4.519,4.519,0,0,1,.942,1.559A5.839,5.839,0,0,1,193.416,188.375Zm-.723,0a5.512,5.512,0,0,0-.28-1.815,3.914,3.914,0,0,0-.788-1.364,3.373,3.373,0,0,0-1.225-.857,4.121,4.121,0,0,0-1.59-.3,4.06,4.06,0,0,0-1.573.3,3.439,3.439,0,0,0-1.228.857,3.877,3.877,0,0,0-.8,1.364,5.955,5.955,0,0,0,0,3.634,3.883,3.883,0,0,0,.8,1.362,3.4,3.4,0,0,0,1.228.853,4.1,4.1,0,0,0,1.573.293,4.157,4.157,0,0,0,1.59-.293,3.34,3.34,0,0,0,1.225-.853,3.92,3.92,0,0,0,.788-1.362A5.5,5.5,0,0,0,192.693,188.375Z" transform="translate(-107.869 -183.441)"/>
        <path id="Path_27245" data-name="Path 27245" d="M209.592,192.767a3.055,3.055,0,0,0,1.246-.242,2.663,2.663,0,0,0,.931-.672,2.946,2.946,0,0,0,.584-1.014,3.819,3.819,0,0,0,.2-1.258v-5.971h.7v5.971a4.306,4.306,0,0,1-.252,1.491,3.561,3.561,0,0,1-.727,1.208,3.347,3.347,0,0,1-1.154.809,4.1,4.1,0,0,1-3.05,0,3.347,3.347,0,0,1-1.154-.809,3.561,3.561,0,0,1-.727-1.208,4.322,4.322,0,0,1-.252-1.491v-5.971h.7v5.964a3.831,3.831,0,0,0,.2,1.26,2.972,2.972,0,0,0,.58,1.013,2.662,2.662,0,0,0,.927.676A3.022,3.022,0,0,0,209.592,192.767Z" transform="translate(-115.475 -183.5)"/>
        <path id="Path_27246" data-name="Path 27246" d="M226.685,189.375v3.89h-.7v-9.657h2.491a3.829,3.829,0,0,1,2.563.744,2.65,2.65,0,0,1,.863,2.123,2.843,2.843,0,0,1-.235,1.166,2.6,2.6,0,0,1-.679.918,3.165,3.165,0,0,1-1.079.6,4.441,4.441,0,0,1-1.433.215Zm0-.56h1.794a3.465,3.465,0,0,0,1.146-.177,2.522,2.522,0,0,0,.857-.491,2.125,2.125,0,0,0,.539-.741,2.278,2.278,0,0,0,.188-.931,2.154,2.154,0,0,0-.686-1.713,3.024,3.024,0,0,0-2.044-.6h-1.794Z" transform="translate(-122.495 -183.5)"/>
      </g>
    </g>
    <g id="Group_6479" data-name="Group 6479" transform="translate(636 875)">
      <g id="Group_6478" data-name="Group 6478" clip-path="url(#clip-path)">
        <path id="Path_36299" data-name="Path 36299" d="M940.576,292.661v12.8c-3.479,5.938-5.943,10.133-5.943,10.133h-7.8s6.708-11.172,13.739-22.935" transform="translate(-833.171 -263.085)"/>
        <path id="Path_36300" data-name="Path 36300" d="M594.179,10.174v12.8c-4.124,6.9-8.36,14-11.416,19.173-2.6,4.4-4.989,10.5-12.162,10.4-6.9-.092-9.488-6.059-12.267-10.7-3.372-5.639-7.144-12.1-10.5-17.7-1.808-3.017-3.936-5.868-5.2-8.9a17.02,17.02,0,0,1-1.143-5.2v-1.1c.648-4.371,3.128-7.778,7.692-8.6a70.391,70.391,0,0,1,9.562-.3h28.9v6.2s-31.8-.053-31.808,0c-3.29,0-5.606-.125-6.756,1.9-1.763,3.1.81,6.115,2.079,8.4,4.031,7.272,8.175,14.477,12.474,22.006,1.6,2.809,3.392,6.9,6.964,6.9,2.355,0,4.382-2.327,5.4-4.1,4.872-8.446,12.754-21.924,18.173-31.173" transform="translate(-486.773 0)"/>
        <path id="Path_36301" data-name="Path 36301" d="M66.422,43.611v-1.1a17.038,17.038,0,0,0-1.143-5.2c-1.262-3.035-3.391-5.885-5.2-8.9-3.353-5.6-7.126-12.064-10.5-17.7C46.8,6.061,44.214.095,37.317,0c-7.173-.1-9.559,6-12.161,10.4C16.89,24.382,0,52.512,0,52.512H7.8S23.911,25.073,31.911,11.2c1.023-1.773,3.051-4.1,5.406-4.1,3.572,0,5.359,4.091,6.964,6.9,4.3,7.527,8.441,14.732,12.473,22,1.268,2.287,3.842,5.3,2.079,8.4-1.149,2.026-3.467,1.9-6.757,1.9,0,.051-31.806,0-31.806,0v6.2h28.9a70.692,70.692,0,0,0,9.563-.3c4.563-.825,7.044-4.232,7.692-8.6" transform="translate(0 -0.001)"/>
      </g>
    </g>
  </g>
</svg>
