<svg xmlns="http://www.w3.org/2000/svg" width="295.401" height="57.823" viewBox="0 0 295.401 57.823">
  <path id="Path_27237" data-name="Path 27237" d="M-138.24.16A1.3,1.3,0,0,0-136.4,0c.4-.4.4-.56.08-1.04s-.24-.96.64-3.44c2.72-7.92,7.44-17.52,14.56-29.68.72-1.2,3.52-5.92,6.16-10.48l4.8-8.32,1.28-.24c.72-.08,7.2-.16,14.4-.16,13.76,0,16.16.16,16.96,1.04.32.32.48.32.88.08.64-.32.8-1.12.24-1.44-1.36-.96-11.28-1.6-21.52-1.36-3.84.08-7.84.24-8.88.32l-1.92.16.08-.8c0-.64-.08-.8-.56-.88s-.8.16-1.36.88l-.72.96-2.8.16c-5.2.32-17.04,1.52-23.04,2.4a57.848,57.848,0,0,0-8.72,1.76c-.4.32-.48,1.04-.08,1.2a15.272,15.272,0,0,0,3.04-.48c3.76-.8,7.6-1.36,17.68-2.48,3.92-.4,10.16-.88,11.6-.88h1.36l-4,6.88c-12.4,21.2-14.32,24.8-17.6,32.48C-137.36-5.2-138.88-.4-138.16.32Zm57.52-25.44c-.24-.48-.72-.32-1.52.16-.72.4-5.28,3.68-7.28,4.72-1.68.88-2.32,1.12-3.12,1.04s-1.04-.08-1.12-1.28l-.08-1.68c-.16-2.48-.24-2.88-.72-3.2a2.966,2.966,0,0,0-1.12-.32c-1.04,0-4.16,1.68-6.72,3.68a12.778,12.778,0,0,1-2.64,1.76c-.16-.16,2.4-4.8,4.32-7.76,2.4-3.76,5.52-8.24,8.4-12a19.247,19.247,0,0,0,2.16-3.12c.16-.72-.32-.88-1.04-.64-1.92.56-12.8,16.24-15.68,22.56-1.28,2.88-1.44,3.6-.96,4.08a1.421,1.421,0,0,0,.8.32,22.888,22.888,0,0,0,3.92-2.72c3.12-2.4,6.4-4.48,7.04-4.48.16,0,.24.96.24,2.08a10.668,10.668,0,0,0,.32,2.8c.56,1.28,2.88,1.76,5.04,1.04,2.08-.72,6.8-3.92,8.88-5.84.64-.64,1.04-1.12.96-1.28Zm25.68.48c-.64.4-1.44,1.04-2.48,1.84-3.68,2.96-5.92,4.16-7.76,4.32-.96.08-1.2,0-1.52-.4-.48-.72-.16-2.16.88-4.08.72-1.28.8-1.6.48-1.92-.48-.48-.8-.4-1.68.32l-.8.64-.4-.8a2.6,2.6,0,0,0-2.48-1.44,6.338,6.338,0,0,0-3.04.96c-3.92,2.24-6.64,7.12-4.64,8.32,1.44.88,4.08-.08,7.76-2.88l1.92-1.44V-20a2.05,2.05,0,0,0,.96,2.16c1.6,1.28,3.6,1.04,7.12-.96a39.74,39.74,0,0,0,6.56-5.04c.56-.56.88-.96.88-1.12,0-.88-.4-.96-1.92.08Zm-16.4,3.36c-1.04.8-2.64,1.84-3.52,2.4-2.08,1.2-2.56,1.28-2.32.24.56-2.32,4.96-6.08,6.72-6a.611.611,0,0,1,.4.16,2.369,2.369,0,0,1,.56,1.04c.24.8.16.88-1.68,2.24Zm49.76-3.84c-.32-.72-1.04-.48-3.28,1.12-5.6,4-9.92,6.24-11.36,5.84-.56-.16-.4-1.68.4-3.6.88-2.16.96-3.28.16-3.84-1.36-1.04-4.32.32-9.6,4.4-2.24,1.76-3.12,2.32-2.96,1.92a40.309,40.309,0,0,1,3.2-5.36c.72-.96.72-1.04.24-1.44a.651.651,0,0,0-.88-.16c-1.12.56-4.24,5.76-4.56,7.52a1.17,1.17,0,0,0,.32,1.2,1.685,1.685,0,0,0,1.04.4c.56,0,3.52-2,5.68-3.84s6.08-4.16,6.48-3.84a6.1,6.1,0,0,1-.56,2c-1.04,2.72-1.2,3.68-.64,4.56.96,1.52,2.88,1.68,5.76.4a44.884,44.884,0,0,0,9.52-6.08c.88-.72,1.36-1.28,1.28-1.52Zm29.76-.16c-.32-.48-1.04.08-2.56,1.28a44.706,44.706,0,0,1-8.08,4.4c-3.2,1.36-5.36,1.36-6.96.08-1.2-.96-1.2-1.76,0-1.92a15.661,15.661,0,0,0,4.88-2c1.12-.88,1.68-1.84,1.44-2.48-.64-2-4.56-.64-9.6,3.36l-2.56,2,1.04-1.84c1.76-3.2,6.48-10.56,9.92-15.52a45.64,45.64,0,0,0,3.36-5.2.653.653,0,0,0-.72-.64,1.29,1.29,0,0,0-.72.24c-1.2.88-8.08,10.96-11.92,17.52-3.44,5.76-5.52,10.08-5.12,10.48a1.191,1.191,0,0,0,.72.32A18,18,0,0,0-15.68-18c1.52-1.44,2.88-2.72,3.04-2.8s.48.24.72.64a5.562,5.562,0,0,0,3.28,2.4c1.76.56,3.84.32,6.32-.72a44.237,44.237,0,0,0,8.88-5.04c1.44-1.12,1.6-1.76,1.36-2.16Zm-17.2,1.6a15.238,15.238,0,0,1,3.28-1.84h0c.48,0,.16.48-.64.96-.48.24-1.36.64-1.92.88C-9.36-23.52-9.44-23.52-9.12-23.84ZM71.28-1.76h0a1.3,1.3,0,0,0,2.16-1.2c-.32-1.2,3.28-9.2,7.44-16.48a292.2,292.2,0,0,1,22.96-33.44c2.48-2.96,2.88-3.6,2.64-4-.64-1.04-1.36-.48-4.24,3.04C100-51.12,92.08-42.96,88.08-39.28A143.089,143.089,0,0,1,74.8-28.64c-4.72,3.04-9.04,4.8-12.08,4.8-2.88,0-4.48-1.04-4.88-3.36-.96-5.12,6.48-18.56,14.4-26.08a10.636,10.636,0,0,0,2-2.24c0-.16-.24-.4-.56-.56-.48-.24-.8-.08-2.08.88-4.56,3.44-11.36,12.8-14.16,19.44-3.2,7.6-2.24,12.08,2.8,13.28a9.759,9.759,0,0,0,5.04.08c6.4-1.36,15.2-7.2,25.76-17.04,1.04-.96,1.12-1.04.64-.32-1.76,2.4-6.72,10-9.2,14A116.732,116.732,0,0,0,72.8-7.04C71.2-3.2,70.88-2,71.36-1.52Zm48.88-23.76c-.4-.48-1.2-.08-3.28,1.2a18.912,18.912,0,0,1-9.52,3.12h-1.28l.4-1.12c.72-1.84.56-2.8-.72-4a2.784,2.784,0,0,0-1.68-.48,3.225,3.225,0,0,0-1.76.48,7.2,7.2,0,0,1-1.12.56,7.071,7.071,0,0,0-1.6,1.6c-2.56,3.12-3.04,5.92-1.2,7.28a3.3,3.3,0,0,0,3.36.32,8.675,8.675,0,0,0,3.44-2.72c.16-.32.48-.4,1.84-.4,3.28,0,6.48-.8,10.64-3.2,2.24-1.28,2.88-2.08,2.56-2.48ZM103.04-19.2a4.947,4.947,0,0,1-1.6,1.2c-1.28.64-1.84.64-2.24-.08s-.16-1.76.72-3.28l.64-1.12.64.88a7.329,7.329,0,0,0,1.68,1.36l.72.4Zm1.84-3.52a3.192,3.192,0,0,1-.56,1.36c-.16.08-.64-.08-1.12-.4-.64-.48-.88-.8-.88-1.36a2.228,2.228,0,0,1,1.68-2h.24q1.2.12.72,2.4Zm44.32-2.56c-.24-.48-.88-.32-1.44.08-.48.32-1.12.72-1.76,1.2-7.04,4.8-11.36,6.48-11.36,4.4a13.9,13.9,0,0,1,.88-2.8,8.246,8.246,0,0,0,.72-2.56c-.4-.88-1.12-.56-4,1.76-3.2,2.56-5.52,4.24-5.92,4.24s-.32-1.28.16-2.4c.24-.56.88-1.76,1.44-2.72.96-1.6,1.04-1.76.64-2.08-.8-.64-1.36-.24-2.72,2-1.6,2.72-2.16,4.8-1.44,5.68,1.2,1.44,3.04.96,6.56-1.84l2.16-1.76-.16,1.6a2.57,2.57,0,0,0,2.72,3.12c2,.08,6-1.84,10.32-4.8,3.12-2.08,3.44-2.48,3.12-3.04Z" transform="translate(146.183 57.348)" fill="#be9f56"/>
</svg>
