<svg xmlns="http://www.w3.org/2000/svg" width="110.837" height="89.39" viewBox="0 0 110.837 89.39">
  <g id="Group_4757" data-name="Group 4757" transform="translate(-56.693 -73.148)">
    <g id="Group_4754" data-name="Group 4754" transform="translate(56.78 73.148)">
      <path id="Path_27365" data-name="Path 27365" d="M206.558,94.394a42.562,42.562,0,0,0-2.848-5.069c-1.837-3.187-3.9-6.87-5.753-10.081-1.522-2.645-2.941-6.042-6.721-6.094-3.93-.055-5.238,3.416-6.664,5.924-4.529,7.96-13.784,23.979-13.784,23.979h4.272s8.831-15.626,13.215-23.524c.56-1.01,1.672-2.336,2.962-2.336,1.957,0,2.936,2.33,3.816,3.93,2.355,4.287,4.625,8.39,6.835,12.531.695,1.3,2.1,3.016,1.139,4.784-.63,1.154-1.9,1.083-3.7,1.083,0,.029-17.429,0-17.429,0v3.531H197.73a37.226,37.226,0,0,0,5.24-.171c2.5-.47,3.86-2.409,4.215-4.9v-.626A10.017,10.017,0,0,0,206.558,94.394Z" transform="translate(-96.522 -73.148)"/>
      <path id="Path_27366" data-name="Path 27366" d="M57.376,74.946H76.114L57.08,101.53a1.3,1.3,0,0,0-.254.762v.782h22v-1.8H59.7L78.694,74.755a1.494,1.494,0,0,0,.3-.867v-.74H57.376Z" transform="translate(-56.826 -73.148)"/>
      <rect id="Rectangle_967" data-name="Rectangle 967" width="2.178" height="29.926" transform="translate(29.481)"/>
      <path id="Path_27367" data-name="Path 27367" d="M147.752,73.211a.768.768,0,0,0-.339.338l-11.758,20.79a5.545,5.545,0,0,0-.307.624q-.138.328-.265.666a8.582,8.582,0,0,0-.55-1.268L122.458,73.549a.751.751,0,0,0-.349-.338,1.462,1.462,0,0,0-.476-.063h-1.481v29.926h1.882V77.568a11.49,11.49,0,0,0-.063-1.184l12.1,20.938a.951.951,0,0,0,.845.55h.339a.923.923,0,0,0,.846-.55l11.78-20.916a11.313,11.313,0,0,0-.064,1.163v25.506h1.9V73.148h-1.5A1.366,1.366,0,0,0,147.752,73.211Z" transform="translate(-78.884 -73.148)"/>
    </g>
    <g id="Group_4755" data-name="Group 4755" transform="translate(56.693 134.359)">
      <path id="Path_27368" data-name="Path 27368" d="M90.965,190.461v-.59a9.441,9.441,0,0,0-.59-2.789,40.018,40.018,0,0,0-2.682-4.774c-1.73-3-3.676-6.469-5.417-9.493-1.433-2.49-2.77-5.689-6.328-5.739-3.7-.051-4.932,3.217-6.275,5.578-4.265,7.5-12.979,22.58-12.979,22.58h4.022s8.315-14.714,12.443-22.15c.528-.951,1.574-2.2,2.789-2.2,1.843,0,2.765,2.194,3.593,3.7,2.218,4.037,4.355,7.9,6.436,11.8.654,1.226,1.982,2.841,1.073,4.505-.594,1.086-1.789,1.02-3.486,1.02,0,.027-16.411,0-16.411,0v3.325h14.91A35.133,35.133,0,0,0,87,195.073C89.351,194.631,90.63,192.8,90.965,190.461Z" transform="translate(-56.693 -167.076)"/>
      <path id="Path_27369" data-name="Path 27369" d="M100.021,171.87v.59a9.426,9.426,0,0,0,.59,2.789,39.961,39.961,0,0,0,2.682,4.773c1.73,3,3.676,6.469,5.417,9.494,1.434,2.49,2.77,5.689,6.329,5.739,3.7.051,4.931-3.217,6.275-5.578,4.265-7.5,12.979-22.58,12.979-22.58H130.27s-8.315,14.714-12.443,22.151c-.528.951-1.574,2.2-2.789,2.2-1.844,0-2.766-2.194-3.594-3.7-2.218-4.037-4.355-7.9-6.436-11.8-.654-1.226-1.982-2.841-1.073-4.506.594-1.086,1.789-1.019,3.486-1.019,0-.027,16.412,0,16.412,0V167.1h-14.91a35.127,35.127,0,0,0-4.934.161C101.635,167.7,100.355,169.526,100.021,171.87Z" transform="translate(-71.785 -167.076)"/>
      <path id="Path_27370" data-name="Path 27370" d="M165.126,190.461v-.59a9.442,9.442,0,0,0-.59-2.789,40.017,40.017,0,0,0-2.682-4.774c-1.73-3-3.677-6.469-5.417-9.493-1.433-2.49-2.77-5.689-6.328-5.739-3.7-.051-4.932,3.217-6.275,5.578-4.265,7.5-12.979,22.58-12.979,22.58h4.023s8.315-14.714,12.443-22.15c.527-.951,1.574-2.2,2.789-2.2,1.843,0,2.765,2.194,3.593,3.7,2.218,4.037,4.356,7.9,6.436,11.8.654,1.226,1.982,2.841,1.073,4.505-.593,1.086-1.788,1.02-3.486,1.02,0,.027-16.412,0-16.412,0v3.325h14.91a35.131,35.131,0,0,0,4.934-.161C163.512,194.631,164.791,192.8,165.126,190.461Z" transform="translate(-82.525 -167.076)"/>
      <path id="Path_27371" data-name="Path 27371" d="M174.182,171.87v.59a9.445,9.445,0,0,0,.59,2.789,39.962,39.962,0,0,0,2.682,4.773c1.73,3,3.676,6.469,5.417,9.494,1.434,2.49,2.77,5.689,6.329,5.739,3.7.051,4.932-3.217,6.275-5.578,4.265-7.5,12.979-22.58,12.979-22.58h-4.023s-8.315,14.714-12.443,22.151c-.527.951-1.574,2.2-2.789,2.2-1.844,0-2.766-2.194-3.593-3.7-2.218-4.037-4.356-7.9-6.436-11.8-.654-1.226-1.982-2.841-1.073-4.506.593-1.086,1.788-1.019,3.486-1.019,0-.027,16.412,0,16.412,0V167.1h-14.91a35.135,35.135,0,0,0-4.934.161C175.8,167.7,174.516,169.526,174.182,171.87Z" transform="translate(-97.617 -167.076)"/>
    </g>
    <g id="Group_4756" data-name="Group 4756" transform="translate(56.78 112.977)">
      <path id="Path_27372" data-name="Path 27372" d="M57.643,145.685h-.817V134.459h.817Z" transform="translate(-56.826 -134.333)"/>
      <path id="Path_27373" data-name="Path 27373" d="M67.879,134.487a.379.379,0,0,1,.135.123l7.266,9.726q-.023-.238-.023-.46v-9.417h.714v11.226h-.388a.344.344,0,0,1-.294-.159l-7.3-9.741a4.425,4.425,0,0,1,.024.452v9.448h-.706V134.459h.4A.45.45,0,0,1,67.879,134.487Z" transform="translate(-60.477 -134.333)"/>
      <path id="Path_27374" data-name="Path 27374" d="M95.952,134.459v.691H92.009v10.535H91.2V135.15H87.234v-.691Z" transform="translate(-67.418 -134.333)"/>
      <path id="Path_27375" data-name="Path 27375" d="M113.973,134.459v.675h-5.91v4.538h4.919v.658h-4.919v4.68h5.91v.674h-6.727V134.459Z" transform="translate(-74.388 -134.333)"/>
      <path id="Path_27376" data-name="Path 27376" d="M126.461,140.608v5.077h-.809V134.459h2.863a4.676,4.676,0,0,1,2.9.751,2.62,2.62,0,0,1,.96,2.2,3.006,3.006,0,0,1-.222,1.174,2.733,2.733,0,0,1-.638.932,3.4,3.4,0,0,1-1,.659,4.505,4.505,0,0,1-1.325.337,1.281,1.281,0,0,1,.341.317l3.863,4.855h-.705a.462.462,0,0,1-.218-.048.569.569,0,0,1-.179-.158l-3.593-4.554a.809.809,0,0,0-.29-.246,1.223,1.223,0,0,0-.48-.071Zm0-.6h1.952a4.608,4.608,0,0,0,1.337-.179,2.879,2.879,0,0,0,1-.512,2.213,2.213,0,0,0,.623-.8,2.513,2.513,0,0,0,.214-1.056,2.063,2.063,0,0,0-.786-1.776,3.81,3.81,0,0,0-2.285-.579h-2.055Z" transform="translate(-80.8 -134.333)"/>
      <path id="Path_27377" data-name="Path 27377" d="M144.871,134.487a.374.374,0,0,1,.135.123l7.267,9.726a4.491,4.491,0,0,1-.024-.46v-9.417h.714v11.226h-.388a.343.343,0,0,1-.294-.159l-7.3-9.741c.016.158.023.31.023.452v9.448H144.3V134.459h.4A.444.444,0,0,1,144.871,134.487Z" transform="translate(-87.295 -134.333)"/>
      <path id="Path_27378" data-name="Path 27378" d="M171.27,135.757a.225.225,0,0,1-.207.135.464.464,0,0,1-.267-.147,3.334,3.334,0,0,0-.441-.325,3.486,3.486,0,0,0-.7-.33,3.505,3.505,0,0,0-2.109.024,2.248,2.248,0,0,0-.78.476,2.033,2.033,0,0,0-.478.7,2.169,2.169,0,0,0-.163.833,1.705,1.705,0,0,0,.242.944,2.177,2.177,0,0,0,.64.635,4.174,4.174,0,0,0,.9.441q.5.178,1.037.353t1.036.385a3.727,3.727,0,0,1,.9.527,2.436,2.436,0,0,1,.64.781,2.481,2.481,0,0,1,.242,1.154,3.644,3.644,0,0,1-.242,1.329,3.108,3.108,0,0,1-.7,1.083,3.3,3.3,0,0,1-1.127.726,4.1,4.1,0,0,1-1.524.266,4.3,4.3,0,0,1-1.911-.393,4.505,4.505,0,0,1-1.4-1.075l.222-.349a.279.279,0,0,1,.222-.119.314.314,0,0,1,.182.1l.27.233c.106.093.233.193.381.3a3.131,3.131,0,0,0,.516.3,3.533,3.533,0,0,0,1.541.33,3.294,3.294,0,0,0,1.192-.2,2.622,2.622,0,0,0,.886-.551,2.354,2.354,0,0,0,.552-.829,2.763,2.763,0,0,0,.191-1.028,1.806,1.806,0,0,0-.243-.979,2.082,2.082,0,0,0-.639-.643,4.155,4.155,0,0,0-.9-.432q-.5-.174-1.037-.341t-1.037-.372a3.583,3.583,0,0,1-.9-.528,2.42,2.42,0,0,1-.64-.8,2.664,2.664,0,0,1-.242-1.2,2.83,2.83,0,0,1,.214-1.086,2.711,2.711,0,0,1,.628-.925,3.081,3.081,0,0,1,1.021-.642,3.721,3.721,0,0,1,1.387-.242,4.2,4.2,0,0,1,1.569.278,3.779,3.779,0,0,1,1.267.849Z" transform="translate(-94.457 -134.265)"/>
      <path id="Path_27379" data-name="Path 27379" d="M191.392,145.685h-.817v-5.378h-7.028v5.378h-.818V134.459h.818V139.7h7.028v-5.237h.817Z" transform="translate(-100.681 -134.333)"/>
      <path id="Path_27380" data-name="Path 27380" d="M206.055,145.685h-.817V134.459h.817Z" transform="translate(-108.521 -134.333)"/>
      <path id="Path_27381" data-name="Path 27381" d="M216.893,141.163v4.522h-.809V134.459h2.9a4.452,4.452,0,0,1,2.979.865,3.079,3.079,0,0,1,1,2.467,3.306,3.306,0,0,1-.274,1.357,3,3,0,0,1-.789,1.067,3.683,3.683,0,0,1-1.253.7,5.191,5.191,0,0,1-1.666.25Zm0-.65h2.087a4.012,4.012,0,0,0,1.333-.206,2.939,2.939,0,0,0,1-.572,2.484,2.484,0,0,0,.627-.861,2.66,2.66,0,0,0,.218-1.083,2.5,2.5,0,0,0-.8-1.991,3.517,3.517,0,0,0-2.376-.7h-2.087Z" transform="translate(-112.299 -134.333)"/>
    </g>
  </g>
</svg>
