<svg xmlns="http://www.w3.org/2000/svg" width="477.311" height="60" viewBox="0 0 477.311 60">
  <g id="Group_4741" data-name="Group 4741" transform="translate(-4.965 -62.582)">
    <g id="Group_4735" data-name="Group 4735" transform="translate(4.965 62.582)">
      <path id="Path_27349" data-name="Path 27349" d="M117.8,105.179c-1.387-3.466-3.726-6.721-5.711-10.165-3.683-6.388-7.826-13.772-11.534-20.211-3.049-5.3-5.9-12.114-13.475-12.219-7.877-.112-10.5,6.848-13.359,11.875-9.079,15.96-27.635,48.078-27.635,48.078h8.565S72.351,91.208,81.14,75.371c1.123-2.024,3.35-4.679,5.936-4.679,3.926,0,5.888,4.668,7.652,7.877,4.722,8.6,9.274,16.821,13.7,25.125,1.394,2.611,4.223,6.048,2.285,9.59-1.264,2.314-3.81,2.173-7.424,2.173,0,.058-34.943,0-34.943,0v7.08h31.745s7.475.225,10.506-.344c5.016-.942,7.739-4.831,8.452-9.821v-1.257A20.1,20.1,0,0,0,117.8,105.179Z" transform="translate(102.817 -62.58)" fill="#fff"/>
      <path id="Path_27350" data-name="Path 27350" d="M6.07,66.189H43.638l-38.163,53.3a2.6,2.6,0,0,0-.511,1.528v1.568h44.1v-3.6H10.734L48.81,65.805a3,3,0,0,0,.594-1.738V62.582H6.07Z" transform="translate(-4.965 -62.582)" fill="#fff"/>
      <rect id="Rectangle_966" data-name="Rectangle 966" width="4.368" height="59.998" transform="translate(59.108 0.001)" fill="#fff"/>
      <path id="Path_27351" data-name="Path 27351" d="M83.147,62.709a1.544,1.544,0,0,0-.677.681L58.895,105.069a11.492,11.492,0,0,0-.616,1.253c-.185.438-.362.884-.529,1.333a17.532,17.532,0,0,0-1.1-2.542L32.437,63.39a1.509,1.509,0,0,0-.7-.681,2.968,2.968,0,0,0-.952-.127h-2.97v60h3.774V71.444a22.427,22.427,0,0,0-.127-2.372l24.256,41.976a1.91,1.91,0,0,0,1.695,1.1h.677a1.858,1.858,0,0,0,1.7-1.1L83.4,69.111a23.23,23.23,0,0,0-.127,2.332v51.138h3.817v-60H84.082A2.774,2.774,0,0,0,83.147,62.709Z" transform="translate(54.927 -62.582)" fill="#fff"/>
    </g>
    <g id="Group_4740" data-name="Group 4740" transform="translate(226.071 62.582)" opacity="0.3">
      <g id="Group_4736" data-name="Group 4736">
        <path id="Path_27352" data-name="Path 27352" d="M112.617,62.582v3.69H91.544v56.31H87.22V66.272H66.02v-3.69Z" transform="translate(-66.02 -62.582)" fill="#fff"/>
      </g>
      <g id="Group_4737" data-name="Group 4737" transform="translate(66.913)">
        <path id="Path_27353" data-name="Path 27353" d="M120.454,62.582v3.607H88.868V90.442h26.288v3.52H88.868v25.017h31.586v3.6H84.5v-60Z" transform="translate(-84.497 -62.582)" fill="#fff"/>
      </g>
      <g id="Group_4738" data-name="Group 4738" transform="translate(123.186)">
        <path id="Path_27354" data-name="Path 27354" d="M153.459,122.582h-3.346a1.464,1.464,0,0,1-.978-.319,2.091,2.091,0,0,1-.594-.826l-7.08-17.43H111.994l-7.04,17.43a1.82,1.82,0,0,1-.59.8,1.577,1.577,0,0,1-1.018.34h-3.31l24.55-60h4.324Zm-40.151-21.794h26.878L127.936,70.469c-.2-.478-.395-1.025-.594-1.63s-.395-1.253-.594-1.93c-.2.677-.395,1.322-.594,1.93s-.395,1.166-.59,1.673Z" transform="translate(-100.036 -62.582)" fill="#fff"/>
      </g>
      <g id="Group_4739" data-name="Group 4739" transform="translate(196.929)">
        <path id="Path_27355" data-name="Path 27355" d="M150.334,107.658c.17-.453.348-.9.529-1.336a12.192,12.192,0,0,1,.616-1.253L175.054,63.39a1.551,1.551,0,0,1,.677-.677,2.687,2.687,0,0,1,.934-.13h3.009v60h-3.813V71.447a22.122,22.122,0,0,1,.127-2.332l-23.619,41.932a1.853,1.853,0,0,1-1.695,1.1h-.681a1.906,1.906,0,0,1-1.695-1.1L124.046,69.072a23.515,23.515,0,0,1,.127,2.376v51.135H120.4v-60h2.966a2.867,2.867,0,0,1,.956.13,1.494,1.494,0,0,1,.7.677l24.209,41.722A17.024,17.024,0,0,1,150.334,107.658Z" transform="translate(-120.399 -62.582)" fill="#fff"/>
      </g>
    </g>
  </g>
</svg>
